<?xml version="1.0" encoding="UTF-8" standalone="no"?>
<!-- Created with Inkscape (http://www.inkscape.org/) -->

<svg
   xmlns:dc="http://purl.org/dc/elements/1.1/"
   xmlns:cc="http://creativecommons.org/ns#"
   xmlns:rdf="http://www.w3.org/1999/02/22-rdf-syntax-ns#"
   xmlns:svg="http://www.w3.org/2000/svg"
   xmlns="http://www.w3.org/2000/svg"
   xmlns:sodipodi="http://sodipodi.sourceforge.net/DTD/sodipodi-0.dtd"
   xmlns:inkscape="http://www.inkscape.org/namespaces/inkscape"
   width="210mm"
   height="221mm"
   viewBox="0 0 210 221"
   version="1.1"
   id="svg8"
   inkscape:version="0.92.5 (2060ec1f9f, 2020-04-08)"
   sodipodi:docname="BoardGame.svg">
  <defs
     id="defs2" />
  <sodipodi:namedview
     id="base"
     pagecolor="#ffffff"
     bordercolor="#666666"
     borderopacity="1.0"
     inkscape:pageopacity="0.0"
     inkscape:pageshadow="2"
     inkscape:zoom="0.45254834"
     inkscape:cx="387.12185"
     inkscape:cy="488.67029"
     inkscape:document-units="mm"
     inkscape:current-layer="layer1"
     showgrid="false"
     inkscape:window-width="1920"
     inkscape:window-height="1017"
     inkscape:window-x="1912"
     inkscape:window-y="-8"
     inkscape:window-maximized="1" />
  <metadata
     id="metadata5">
    <rdf:RDF>
      <cc:Work
         rdf:about="">
        <dc:format>image/svg+xml</dc:format>
        <dc:type
           rdf:resource="http://purl.org/dc/dcmitype/StillImage" />
        <dc:title></dc:title>
      </cc:Work>
    </rdf:RDF>
  </metadata>
  <g
     inkscape:label="Layer 1"
     inkscape:groupmode="layer"
     id="layer1"
     transform="translate(0,-76)">
    <g
       id="g1643">
      <g
         transform="translate(10.186459,9.8226563)"
         id="g1572">
        <g
           id="g1558"
           transform="translate(341.4923,-1.8094417)">
          <rect
             ry="2.2678571"
             y="156.5034"
             x="-239.37624"
             height="29.482143"
             width="50.648815"
             id="rect1139"
             style="opacity:1;fill:#00ffff;fill-opacity:0;fill-rule:evenodd;stroke:#170000;stroke-width:6.85200024;stroke-linecap:round;stroke-linejoin:miter;stroke-miterlimit:4;stroke-dasharray:none;stroke-opacity:1;paint-order:fill markers stroke" />
          <path
             inkscape:connector-curvature="0"
             id="path1260"
             d="m -249.82003,213.86172 v -14.6525 h -21.92445 -21.92445 v 2.04629 2.04626 h -3.36175 -3.36175 l 0.007,-2.55783 c 0.0127,-4.54568 0.92447,-6.62871 3.37615,-7.71321 1.20403,-0.53261 2.23562,-0.55171 25.7564,-0.47684 l 24.50213,0.078 1.05697,0.71535 c 0.58133,0.39344 1.37061,1.17295 1.75396,1.73223 l 0.69699,1.01687 0.0813,14.01715 c 0.0802,13.82784 0.0729,14.03464 -0.54699,15.31503 -0.83665,1.72832 -2.44961,2.78202 -4.52148,2.95384 l -1.5902,0.13187 z"
             style="opacity:1;fill:#000000;fill-opacity:1;fill-rule:evenodd;stroke:#000001;stroke-width:1;stroke-linecap:round;stroke-linejoin:miter;stroke-miterlimit:4;stroke-dasharray:none;stroke-opacity:1;paint-order:fill markers stroke" />
          <rect
             ry="2.2678571"
             y="206.58977"
             x="-303.91382"
             height="29.482143"
             width="50.648815"
             id="rect1139-5"
             style="opacity:1;fill:#00ffff;fill-opacity:0;fill-rule:evenodd;stroke:#170000;stroke-width:6.85200024;stroke-linecap:round;stroke-linejoin:miter;stroke-miterlimit:4;stroke-dasharray:none;stroke-opacity:1;paint-order:fill markers stroke" />
          <rect
             transform="rotate(30)"
             ry="0.87697816"
             y="288.21948"
             x="-90.062439"
             height="14.03165"
             width="13.446998"
             id="rect1313"
             style="opacity:1;fill:#000000;fill-opacity:0.00502511;fill-rule:evenodd;stroke:#000000;stroke-width:7;stroke-linecap:round;stroke-linejoin:miter;stroke-miterlimit:4;stroke-dasharray:none;stroke-opacity:1;paint-order:fill markers stroke" />
          <rect
             transform="rotate(-15)"
             ry="0.87697822"
             y="166.76465"
             x="-262.97687"
             height="14.031651"
             width="13.446998"
             id="rect1313-1"
             style="opacity:1;fill:#000000;fill-opacity:0.00502511;fill-rule:evenodd;stroke:#000000;stroke-width:7;stroke-linecap:round;stroke-linejoin:miter;stroke-miterlimit:4;stroke-dasharray:none;stroke-opacity:1;paint-order:fill markers stroke" />
        </g>
        <g
           id="g1512"
           transform="matrix(1.1950187,0,0,1.1950187,438.28175,-43.989311)">
          <circle
             cx="-281.91132"
             cy="117.56679"
             r="7.5420837"
             id="path1358-4-3"
             style="opacity:1;fill:#000000;fill-opacity:0.00502511;fill-rule:evenodd;stroke:#000000;stroke-width:6.38523436;stroke-linecap:round;stroke-linejoin:miter;stroke-miterlimit:4;stroke-dasharray:none;stroke-opacity:1;paint-order:fill markers stroke" />
          <path
             sodipodi:nodetypes="cc"
             inkscape:connector-curvature="0"
             id="path1397-5-9"
             d="m -280.81209,126.64529 1.0428,15.34656"
             style="fill:#00ff00;fill-opacity:0;stroke:#000000;stroke-width:6.38500023;stroke-linecap:butt;stroke-linejoin:miter;stroke-miterlimit:4;stroke-dasharray:none;stroke-opacity:1" />
          <path
             sodipodi:nodetypes="cc"
             inkscape:connector-curvature="0"
             id="path1397-5-6-4"
             d="m -288.0665,124.71263 -10.91021,11.80549"
             style="fill:#00ff00;fill-opacity:0;stroke:#000000;stroke-width:6.38500023;stroke-linecap:butt;stroke-linejoin:miter;stroke-miterlimit:4;stroke-dasharray:none;stroke-opacity:1" />
          <path
             sodipodi:nodetypes="cc"
             inkscape:connector-curvature="0"
             id="path1431-4"
             d="m -298.28705,135.86061 c -12.18148,10.22109 19.10441,24.70544 18.46206,5.35258"
             style="fill:none;stroke:#000000;stroke-width:6.38500023;stroke-linecap:butt;stroke-linejoin:miter;stroke-miterlimit:4;stroke-dasharray:none;stroke-opacity:1" />
        </g>
        <path
           style="opacity:1;fill:#000000;fill-opacity:0.99497483;fill-rule:evenodd;stroke:none;stroke-width:9.97656345;stroke-linecap:round;stroke-linejoin:miter;stroke-miterlimit:4;stroke-dasharray:none;stroke-opacity:1;paint-order:fill markers stroke"
           d="m -2.9004638,286.32517 c -3.1348626,-0.61087 -5.4467124,-3.27686 -5.8569753,-6.75415 -0.1394883,-1.18226 -0.1981994,-39.17055 -0.1304925,-84.41843 0.1149085,-76.77772 0.1704181,-82.35527 0.8317441,-83.56322 1.0769865,-1.96718 2.9681223,-3.33762 5.2941273,-3.83646 1.4219766,-0.30496 13.5660602,-0.45025 37.6325072,-0.45025 h 35.533039 v 3.30729 3.30729 h -7.441407 -7.441406 v 12.40234 12.40235 H 93.967938 132.4152 v -12.40235 -12.40234 h -8.68164 -8.68164 v -3.30729 -3.30729 l 37.10368,0.0101 c 24.00042,0.007 37.75774,0.16082 38.95574,0.43686 2.33779,0.53866 4.47458,2.15152 5.22275,3.94215 0.49145,1.17619 0.5631,14.18594 0.4729,85.86394 l -0.10631,84.47771 -1.11354,1.45989 c -0.61245,0.80296 -1.82168,1.81166 -2.68718,2.24155 -1.52872,0.75936 -4.32245,0.7833 -97.898493,0.83963 -52.978679,0.0319 -97.0345472,-0.0803 -97.9019308,-0.24932 z m 191.3060038,-6.61971 1.06044,-0.40317 v -9.88149 c 0,-7.87463 -0.11531,-9.97719 -0.56781,-10.35273 -0.40013,-0.33208 -3.6658,-0.43859 -11.05875,-0.36068 l -10.49095,0.11056 -0.1106,10.24258 -0.1106,10.24258 0.93742,0.37655 c 1.26875,0.50967 19.00901,0.53216 20.34085,0.0259 z M 19.870927,269.0968 c 0.08612,-8.10835 -0.0048,-10.42474 -0.413411,-10.54199 -0.288052,-0.0827 -5.221156,-0.0975 -10.9624022,-0.0331 l -10.4386326,0.1172 v 10.28699 c 0,7.84084 0.1228725,10.33745 0.5167577,10.49913 0.2842154,0.11668 5.1676564,0.1787 10.852044,0.13782 l 10.3352861,-0.0743 z m 27.794929,-0.15027 V 258.19784 H 37.561672 c -6.119193,0 -10.202455,0.15901 -10.353373,0.40317 -0.181345,0.29346 -0.379756,18.168 -0.23069,20.78417 0.0098,0.17052 4.668546,0.31004 10.35296,0.31004 h 10.335287 z m 28.142789,0.23171 c -1.59e-4,-8.67725 -0.09719,-10.36457 -0.612627,-10.65302 -0.336838,-0.1885 -4.9481,-0.29277 -10.247246,-0.23171 l -9.634805,0.11103 -0.110349,10.65246 -0.110342,10.65245 10.357776,-0.11046 10.357778,-0.11046 z m 27.984795,-0.12835 -0.11033,-10.64535 -9.624703,-0.111 c -6.16672,-0.0711 -9.917133,0.0455 -10.438638,0.3246 -0.775361,0.41496 -0.81394,0.91171 -0.81394,10.48074 0,5.52483 0.124024,10.16917 0.275609,10.32075 0.151579,0.15158 4.89862,0.27559 10.548969,0.27559 h 10.273363 z m 28.11198,0 -0.11033,-10.64535 h -10.12858 -10.12858 l -0.11034,10.64535 -0.11033,10.64533 h 10.34925 10.34924 z m 28.52559,0.22509 c 0.10634,-9.82586 0.0794,-10.23023 -0.71059,-10.653 -0.5305,-0.28391 -4.22756,-0.40016 -10.44582,-0.32844 l -9.6247,0.111 -0.11035,10.65246 -0.11034,10.65245 10.44563,-0.11046 10.44564,-0.11046 z m 28.27895,-17.96251 c 0.69298,-0.62714 0.75602,-1.52339 0.75602,-10.7487 v -10.0645 h -10.74869 -10.7487 v 10.31474 c 0,9.38744 0.065,10.35263 0.72347,10.73613 0.43111,0.2511 4.46924,0.42646 9.99267,0.43395 8.05646,0.0109 9.36812,-0.0769 10.02523,-0.67162 z M 19.45741,241.04126 19.567635,230.70597 H 8.8120582 -1.9435188 V 240.869 c 0,5.58967 0.1271323,10.29018 0.2825486,10.44558 0.1553897,0.1554 4.9458032,0.23292 10.6453515,0.17226 l 10.3627767,-0.11029 z m 141.8966,-42.78808 V 145.33651 H 93.967938 26.581871 v 52.91667 52.91666 H 93.967938 161.35401 Z M 19.553877,212.72258 V 202.38729 H 9.0561098 c -9.19120153,0 -10.5289878,0.0814 -10.7486978,0.65393 -0.1380066,0.35966 -0.2509308,5.01054 -0.2509308,10.33528 v 9.68136 H 8.805179 19.553877 Z m 169.815853,-0.0359 -0.11045,-10.37116 -10.24217,0.0178 c -5.63319,0.01 -10.4236,0.12993 -10.64534,0.26698 -0.24417,0.15089 -0.40318,4.23414 -0.40318,10.35335 v 10.10418 h 10.75579 10.7558 l -0.11045,-10.37116 z M 19.553877,184.81032 v -10.54897 l -10.6453518,0.11034 -10.6453515,0.11033 -0.1166283,9.50846 c -0.064161,5.22965 -0.014023,9.92704 0.1112308,10.43864 l 0.2278592,0.93018 H 9.0197561 19.553877 Z m 169.815853,-0.0964 0.11045,-10.43864 h -10.7558 -10.75579 v 10.26638 c 0,5.64652 0.12714,10.39353 0.28254,10.54894 0.1554,0.1554 4.94581,0.23291 10.64535,0.17225 l 10.3628,-0.11029 z m -169.815747,-28.11198 1.32e-4,-10.23193 -10.6454575,0.0796 -10.6454838,0.0796 -0.1105694,10.15236 -0.1105693,10.15237 H 8.7979559 19.553877 Z M 189.46598,156.49859 V 146.1633 h -10.74869 -10.7487 v 10.33529 10.33529 h 10.7487 10.74869 z M 19.553877,128.47976 v -10.44887 l -1.06045,-0.40318 c -0.583248,-0.22175 -5.006684,-0.40318 -9.8298795,-0.40318 -7.2679453,0 -8.92677693,0.11019 -9.6882478,0.64356 -0.9065683,0.63498 -0.9188185,0.77728 -0.9188185,10.6798 0,5.51993 0.077523,10.11375 0.1722438,10.20849 0.094747,0.0947 4.9316745,0.17225 10.7486977,0.17225 H 19.553877 Z m 29.352213,-0.50653 v -10.7487 H 37.743981 26.581871 v 10.7487 10.7487 h 11.16211 11.162109 z m 112.44792,0 v -10.7487 H 150.1919 139.02979 v 10.7487 10.7487 h 11.16211 11.16211 z m 28.11197,0 v -10.7487 h -10.74869 -10.7487 v 10.7487 10.7487 h 10.7487 10.74869 z"
           id="path1525"
           inkscape:connector-curvature="0" />
      </g>
      <rect
         y="79.326744"
         x="128.89328"
         height="8.1851292"
         width="8.1851292"
         id="rect1576"
         style="opacity:1;fill:#000000;fill-opacity:1;fill-rule:evenodd;stroke:none;stroke-width:6.38500023;stroke-linecap:round;stroke-linejoin:miter;stroke-miterlimit:4;stroke-dasharray:none;stroke-opacity:1;paint-order:fill markers stroke" />
      <rect
         inkscape:transform-center-y="-4.9695428"
         inkscape:transform-center-x="8.6236184"
         transform="rotate(-45)"
         y="143.86472"
         x="18.037165"
         height="8.1851292"
         width="8.1851292"
         id="rect1576-6"
         style="opacity:1;fill:#000000;fill-opacity:1;fill-rule:evenodd;stroke:none;stroke-width:6.38500023;stroke-linecap:round;stroke-linejoin:miter;stroke-miterlimit:4;stroke-dasharray:none;stroke-opacity:1;paint-order:fill markers stroke" />
      <rect
         transform="rotate(45)"
         y="-42.241985"
         x="162.77827"
         height="8.1851292"
         width="8.1851292"
         id="rect1576-4"
         style="opacity:1;fill:#000000;fill-opacity:1;fill-rule:evenodd;stroke:none;stroke-width:6.38500023;stroke-linecap:round;stroke-linejoin:miter;stroke-miterlimit:4;stroke-dasharray:none;stroke-opacity:1;paint-order:fill markers stroke" />
      <rect
         transform="rotate(15)"
         y="30.110819"
         x="190.56612"
         height="8.1851292"
         width="8.1851292"
         id="rect1576-1"
         style="opacity:1;fill:#000000;fill-opacity:1;fill-rule:evenodd;stroke:none;stroke-width:6.38500023;stroke-linecap:round;stroke-linejoin:miter;stroke-miterlimit:4;stroke-dasharray:none;stroke-opacity:1;paint-order:fill markers stroke" />
      <rect
         transform="rotate(45)"
         y="-75.521599"
         x="196.05791"
         height="8.1851292"
         width="8.1851292"
         id="rect1576-5"
         style="opacity:1;fill:#000000;fill-opacity:1;fill-rule:evenodd;stroke:none;stroke-width:6.38500023;stroke-linecap:round;stroke-linejoin:miter;stroke-miterlimit:4;stroke-dasharray:none;stroke-opacity:1;paint-order:fill markers stroke" />
      <rect
         transform="rotate(90)"
         y="-200.95166"
         x="100.81271"
         height="8.1851292"
         width="8.1851292"
         id="rect1576-9"
         style="opacity:1;fill:#000000;fill-opacity:1;fill-rule:evenodd;stroke:none;stroke-width:6.38500023;stroke-linecap:round;stroke-linejoin:miter;stroke-miterlimit:4;stroke-dasharray:none;stroke-opacity:1;paint-order:fill markers stroke" />
      <rect
         transform="rotate(-30)"
         y="153.25316"
         x="95.753059"
         height="8.1851292"
         width="8.1851292"
         id="rect1576-3"
         style="opacity:1;fill:#000000;fill-opacity:1;fill-rule:evenodd;stroke:none;stroke-width:6.38500023;stroke-linecap:round;stroke-linejoin:miter;stroke-miterlimit:4;stroke-dasharray:none;stroke-opacity:1;paint-order:fill markers stroke" />
    </g>
  </g>
</svg>
