<?xml version="1.0" encoding="UTF-8" standalone="no"?>
<!-- Created with Inkscape (http://www.inkscape.org/) -->

<svg
   xmlns:dc="http://purl.org/dc/elements/1.1/"
   xmlns:cc="http://creativecommons.org/ns#"
   xmlns:rdf="http://www.w3.org/1999/02/22-rdf-syntax-ns#"
   xmlns:svg="http://www.w3.org/2000/svg"
   xmlns="http://www.w3.org/2000/svg"
   xmlns:sodipodi="http://sodipodi.sourceforge.net/DTD/sodipodi-0.dtd"
   xmlns:inkscape="http://www.inkscape.org/namespaces/inkscape"
   width="21.292957"
   height="21.913286"
   viewBox="0 0 5.6337616 5.7978902"
   version="1.1"
   id="svg8"
   inkscape:version="0.92.5 (2060ec1f9f, 2020-04-08)"
   sodipodi:docname="admin.svg">
  <defs
     id="defs2" />
  <sodipodi:namedview
     id="base"
     pagecolor="#ffffff"
     bordercolor="#666666"
     borderopacity="1.0"
     inkscape:pageopacity="0.0"
     inkscape:pageshadow="2"
     inkscape:zoom="22.4"
     inkscape:cx="33.266639"
     inkscape:cy="17.394998"
     inkscape:document-units="mm"
     inkscape:current-layer="layer1"
     showgrid="false"
     units="px"
     fit-margin-top="0.1"
     fit-margin-left="0.1"
     fit-margin-right="0.1"
     fit-margin-bottom="0.1"
     inkscape:window-width="1920"
     inkscape:window-height="1017"
     inkscape:window-x="1912"
     inkscape:window-y="-8"
     inkscape:window-maximized="1" />
  <metadata
     id="metadata5">
    <rdf:RDF>
      <cc:Work
         rdf:about="">
        <dc:format>image/svg+xml</dc:format>
        <dc:type
           rdf:resource="http://purl.org/dc/dcmitype/StillImage" />
        <dc:title></dc:title>
      </cc:Work>
    </rdf:RDF>
  </metadata>
  <g
     inkscape:label="Layer 1"
     inkscape:groupmode="layer"
     id="layer1"
     transform="translate(8.4592738,-292.13212)">
    <g
       transform="matrix(0.11718876,0,0,0.11718876,-8.6037028,263.1209)"
       id="layer1-39"
       inkscape:label="Layer 1">
      <g
         transform="matrix(0.22763783,0,0,0.22763783,1.1262759,229.24389)"
         id="g991">
        <g
           transform="translate(0.76496573,-0.54834091)"
           id="layer1-9"
           inkscape:label="Layer 1"
           style="fill:#b3b3b3">
          <path
             transform="matrix(0.26458333,0,0,0.26458333,0,79)"
             inkscape:connector-curvature="0"
             id="path1466"
             d="m 13.586357,822.44955 c -0.4102,-0.66373 -2.03088,-6.97593 -3.6015099,-14.02714 -12.1339217,-54.47419 -9.13565402,-118.47117 7.9708839,-170.13573 17.399383,-52.54901 49.337697,-97.8401 86.840419,-123.14667 22.98087,-15.50734 52.28651,-26.58307 74.59384,-28.19191 13.37761,-0.96481 7.9995,-3.49409 49.77357,23.40805 13.35714,8.60188 30.14247,18.96752 37.30074,23.03474 44.79389,25.45123 91.42477,37.7434 134.4547,35.44303 73.72843,-3.9415 125.97626,-24.26177 177.27584,-68.94627 22.4618,-19.56535 20.3339,-18.59198 36.21603,-16.5664 24.25457,3.09338 44.17534,9.90768 64.69342,22.12968 58.6107,34.91264 100.06095,103.99083 111.6465,186.06252 5.40018,38.25469 2.04942,90.91147 -8.06785,126.78572 l -1.51083,5.35714 H 397.75214 c -210.88098,0 -383.755582,-0.54304 -384.165783,-1.20676 z"
             style="opacity:1;fill:#b3b3b3;fill-opacity:1;fill-rule:evenodd;stroke:none;stroke-width:8.09898758;stroke-linecap:round;stroke-linejoin:miter;stroke-miterlimit:4;stroke-dasharray:none;stroke-opacity:1;paint-order:fill markers stroke" />
          <path
             inkscape:connector-curvature="0"
             id="path1473"
             d="m 96.855995,206.51764 c -26.060283,-3.21634 -48.191726,-24.64397 -52.973641,-51.289 -1.063826,-5.92767 -0.927108,-17.97705 0.266861,-23.51972 2.714194,-12.59985 8.375283,-22.94809 17.29323,-31.6113 5.590405,-5.430722 10.053072,-8.666083 16.149556,-11.708172 9.278728,-4.629997 16.794747,-6.394841 27.207489,-6.388617 7.6638,0.0046 11.32546,0.495617 18.07135,2.423414 25.71104,7.347533 44.55344,32.523995 44.54216,59.515465 -0.0127,30.33333 -21.24293,56.16817 -50.75827,61.76713 -5.60526,1.0633 -14.72638,1.43683 -19.798735,0.8108 z"
             style="opacity:1;fill:#b3b3b3;fill-opacity:1;fill-rule:evenodd;stroke:none;stroke-width:3.0304575;stroke-linecap:round;stroke-linejoin:miter;stroke-miterlimit:4;stroke-dasharray:none;stroke-opacity:1;paint-order:fill markers stroke" />
        </g>
        <g
           id="g890"
           transform="matrix(0.83533971,0,0,0.83533971,385.59807,161.56966)">
          <g
             transform="matrix(0.87951548,0.01745845,-0.01734756,0.88513786,-916.51845,1000.5448)"
             id="g1001">
            <path
               style="opacity:1;fill:#000000;fill-opacity:1;fill-rule:evenodd;stroke:none;stroke-width:8.64389038;stroke-linecap:round;stroke-linejoin:miter;stroke-miterlimit:4;stroke-dasharray:none;stroke-opacity:1;paint-order:fill markers stroke"
               d="m 711.17779,-963.90301 c -12.43958,-4.1423 -20.97276,-9.568 -30.69377,-19.516 -11.6673,-11.9399 -18.59797,-24.34099 -22.93211,-41.03269 -1.82791,-7.0397 -3.09061,-23.0796 -2.47813,-31.4791 l 0.39965,-5.4806 h 31.41699 31.41702 v 49.8928 c 0,27.44109 -0.0865,49.88589 -0.19221,49.87729 -0.10571,-0.01 -3.22756,-1.0263 -6.93744,-2.2617 z"
               id="path954"
               inkscape:connector-curvature="0" />
            <path
               style="opacity:1;fill:#000000;fill-opacity:1;fill-rule:evenodd;stroke:none;stroke-width:8.54903126;stroke-linecap:round;stroke-linejoin:miter;stroke-miterlimit:4;stroke-dasharray:none;stroke-opacity:1;paint-order:fill markers stroke"
               d="m 724.91974,-963.903 c 12.16806,-4.1423 20.51497,-9.568 30.02379,-19.516 11.41264,-11.9399 18.19203,-24.341 22.43156,-41.0327 1.78802,-7.0397 3.02314,-23.0796 2.42404,-31.4791 l -0.39093,-5.4806 H 748.67697 717.9457 v 49.8928 c 0,27.4411 0.0847,49.8859 0.18802,49.8773 0.10341,-0.01 3.1571,-1.0263 6.78602,-2.2617 z"
               id="path954-7"
               inkscape:connector-curvature="0" />
            <rect
               style="opacity:1;fill:#000000;fill-opacity:1;fill-rule:evenodd;stroke:none;stroke-width:1.17271078;stroke-linecap:round;stroke-linejoin:miter;stroke-miterlimit:4;stroke-dasharray:none;stroke-opacity:1;paint-order:fill markers stroke"
               id="rect996"
               width="68.562782"
               height="68.562782"
               x="-907.16827"
               y="-1697.4462"
               ry="0.44325632"
               transform="matrix(0.90820339,0.41852909,-0.90820339,0.41852909,0,0)" />
          </g>
          <path
             inkscape:connector-curvature="0"
             id="path1091"
             d="m -264.40649,148.30851 c -0.14012,-0.56285 -0.34906,-2.26281 -0.54206,-4.41031 -0.3744,-4.16591 -0.85437,-18.2943 -1.14014,-33.56056 -0.24833,-13.266112 -0.62717,-45.059872 -0.53841,-45.185718 0.0264,-0.03684 10.01927,3.583142 22.20642,8.045475 12.18715,4.462332 22.53862,8.2374 23.00326,8.388956 0.46464,0.151631 0.84415,0.366035 0.84338,0.476544 -0.003,0.423244 -2.00063,7.863622 -2.79267,10.401283 -4.44073,14.22792 -10.10124,26.64943 -16.48661,36.17844 -6.83112,10.19417 -14.51493,16.97149 -22.44632,19.7985 -1.76745,0.62998 -1.91936,0.62044 -2.10685,-0.13261 z"
             style="opacity:1;fill:#ffffff;fill-opacity:1;fill-rule:evenodd;stroke:none;stroke-width:0.91550362;stroke-linecap:round;stroke-linejoin:miter;stroke-miterlimit:4;stroke-dasharray:none;stroke-opacity:1;paint-order:fill markers stroke" />
        </g>
      </g>
    </g>
  </g>
</svg>
