<?xml version="1.0" encoding="UTF-8" standalone="no"?>
<!-- Created with Inkscape (http://www.inkscape.org/) -->

<svg
   xmlns:dc="http://purl.org/dc/elements/1.1/"
   xmlns:cc="http://creativecommons.org/ns#"
   xmlns:rdf="http://www.w3.org/1999/02/22-rdf-syntax-ns#"
   xmlns:svg="http://www.w3.org/2000/svg"
   xmlns="http://www.w3.org/2000/svg"
   xmlns:sodipodi="http://sodipodi.sourceforge.net/DTD/sodipodi-0.dtd"
   xmlns:inkscape="http://www.inkscape.org/namespaces/inkscape"
   width="16.907455"
   height="18.820938"
   viewBox="0 0 4.4734309 4.9797064"
   version="1.1"
   id="svg8"
   inkscape:version="0.92.5 (2060ec1f9f, 2020-04-08)"
   sodipodi:docname="event.svg">
  <defs
     id="defs2" />
  <sodipodi:namedview
     id="base"
     pagecolor="#ffffff"
     bordercolor="#666666"
     borderopacity="1.0"
     inkscape:pageopacity="0.0"
     inkscape:pageshadow="2"
     inkscape:zoom="22.4"
     inkscape:cx="19.08547"
     inkscape:cy="11.098776"
     inkscape:document-units="mm"
     inkscape:current-layer="layer1"
     showgrid="false"
     units="px"
     fit-margin-top="0.1"
     fit-margin-left="0.1"
     fit-margin-right="0.1"
     fit-margin-bottom="0.1"
     inkscape:window-width="1920"
     inkscape:window-height="1017"
     inkscape:window-x="1912"
     inkscape:window-y="-8"
     inkscape:window-maximized="1" />
  <metadata
     id="metadata5">
    <rdf:RDF>
      <cc:Work
         rdf:about="">
        <dc:format>image/svg+xml</dc:format>
        <dc:type
           rdf:resource="http://purl.org/dc/dcmitype/StillImage" />
        <dc:title></dc:title>
      </cc:Work>
    </rdf:RDF>
  </metadata>
  <g
     inkscape:label="Layer 1"
     inkscape:groupmode="layer"
     id="layer1"
     transform="translate(12.236543,-306.27076)">
    <g
       transform="matrix(0.02114061,0,0,0.02114061,-12.222726,304.94923)"
       id="layer1-7"
       inkscape:label="Layer 1">
      <g
         transform="matrix(2.9074822,0,0,2.9074822,-91.846637,63.814779)"
         id="g1377">
        <g
           id="g1303">
          <rect
             y="36.678349"
             x="43.013844"
             height="9.2377443"
             width="9.635066"
             id="rect860-0"
             style="opacity:1;fill:#999999;fill-opacity:1;fill-rule:evenodd;stroke:none;stroke-width:3.1855669;stroke-linecap:round;stroke-linejoin:miter;stroke-miterlimit:100;stroke-dasharray:none;stroke-opacity:1;paint-order:fill markers stroke" />
          <rect
             y="36.830238"
             x="59.992138"
             height="9.2377443"
             width="9.635066"
             id="rect860-7-6"
             style="opacity:1;fill:#999999;fill-opacity:1;fill-rule:evenodd;stroke:none;stroke-width:3.1855669;stroke-linecap:round;stroke-linejoin:miter;stroke-miterlimit:100;stroke-dasharray:none;stroke-opacity:1;paint-order:fill markers stroke" />
          <rect
             y="36.736694"
             x="77.017212"
             height="9.2377443"
             width="9.635066"
             id="rect860-70-4"
             style="opacity:1;fill:#999999;fill-opacity:1;fill-rule:evenodd;stroke:none;stroke-width:3.1855669;stroke-linecap:round;stroke-linejoin:miter;stroke-miterlimit:100;stroke-dasharray:none;stroke-opacity:1;paint-order:fill markers stroke" />
          <rect
             y="54.323025"
             x="43.060612"
             height="9.2377443"
             width="9.635066"
             id="rect860-5-1"
             style="opacity:1;fill:#999999;fill-opacity:1;fill-rule:evenodd;stroke:none;stroke-width:3.1855669;stroke-linecap:round;stroke-linejoin:miter;stroke-miterlimit:100;stroke-dasharray:none;stroke-opacity:1;paint-order:fill markers stroke" />
          <rect
             y="54.323032"
             x="59.992138"
             height="9.2377443"
             width="9.635066"
             id="rect860-9-3"
             style="opacity:1;fill:#999999;fill-opacity:1;fill-rule:evenodd;stroke:none;stroke-width:3.1855669;stroke-linecap:round;stroke-linejoin:miter;stroke-miterlimit:100;stroke-dasharray:none;stroke-opacity:1;paint-order:fill markers stroke" />
          <path
             inkscape:connector-curvature="0"
             id="path942-1"
             d="m 79.117127,76.471982 c -0.02368,-0.03859 -9.39619,-0.0722 -20.827778,-0.0747 -11.43159,-0.0024 -21.193815,-0.03754 -21.693833,-0.07787 -1.232331,-0.0994 -2.082829,-0.507555 -3.027413,-1.452874 -0.729186,-0.729756 -1.073798,-1.259459 -1.428212,-2.195301 l -0.234509,-0.619223 -0.07127,-16.791207 c -0.07718,-18.183966 0.03031,-42.024049 0.193966,-43.017562 0.123859,-0.751919 0.563965,-1.582909 1.205341,-2.2758794 0.635908,-0.6870647 1.183545,-1.0873979 2.141241,-1.5652867 l 0.763855,-0.3811614 h 28.630404 28.630406 l 0.74421,0.3674991 c 1.000736,0.4941758 1.464093,0.8252066 2.067271,1.4769045 0.522798,0.5648559 0.968328,1.3137669 1.26787,2.1312289 0.16374,0.446855 0.173554,1.419366 0.219954,21.795831 0.02671,11.73046 0.04857,21.333692 0.04857,21.340516 0,0.0068 -0.38889,-0.267772 -0.864201,-0.610209 -0.475311,-0.342439 -1.326848,-0.87421 -1.892303,-1.181711 l -1.028102,-0.559096 -0.0019,-10.781131 -0.0019,-10.781133 -29.162446,0.02352 -29.162447,0.02352 0.0056,19.597539 c 0.0031,10.778646 0.03826,19.883858 0.07812,20.233809 0.06329,0.555623 0.114073,0.677871 0.40068,0.964478 0.180515,0.180512 0.440023,0.378283 0.576689,0.439489 0.189005,0.08464 5.112078,0.117509 20.568785,0.1373 l 20.320307,0.02601 0.551442,0.722336 c 0.612902,0.802841 2.059773,2.235928 2.762416,2.736093 l 0.456354,0.32485 -0.316037,0.02156 c -0.917803,0.06266 -1.883127,0.06357 -1.921037,0.0019 z M 47.790632,21.535153 c 1.601108,-0.417036 2.857466,-1.666195 3.289986,-3.271133 0.148545,-0.551196 0.162589,-1.60863 0.02906,-2.187835 -0.45735,-1.983851 -2.335135,-3.466751 -4.394652,-3.470486 -3.000502,-0.0054 -5.167945,2.803233 -4.408448,5.712687 0.617405,2.36514 3.119345,3.832696 5.484054,3.216767 z m 17.835494,0.0087 c 2.524551,-0.535115 4.132694,-3.067286 3.497281,-5.5068 -0.742995,-2.852544 -3.758279,-4.265927 -6.396328,-2.998205 -1.592207,0.76514 -2.537937,2.297594 -2.537937,4.112458 0,2.078231 1.448631,3.876628 3.528576,4.38054 0.702347,0.170161 1.149036,0.172971 1.908408,0.01201 z m 18.016286,-0.05463 c 1.118333,-0.25808 2.371519,-1.216385 2.908724,-2.224283 1.892503,-3.550701 -1.261407,-7.593576 -5.135023,-6.582392 -2.394543,0.625084 -3.849307,3.149124 -3.216132,5.580044 0.373406,1.433598 1.5754,2.67978 3.035591,3.147182 0.575633,0.184259 1.780352,0.224026 2.40684,0.07945 z"
             style="opacity:1;fill:#808080;fill-opacity:0;fill-rule:evenodd;stroke:none;stroke-width:1.06066012;stroke-linecap:round;stroke-linejoin:miter;stroke-miterlimit:100;stroke-dasharray:none;stroke-opacity:1;paint-order:fill markers stroke" />
          <path
             inkscape:connector-curvature="0"
             id="path944-1"
             d="M 57.49834,76.398307 35.931941,76.332161 35.071532,75.908544 C 33.96819,75.365326 32.931447,74.325841 32.393367,73.223307 L 31.973706,72.363411 31.866417,64.75664 C 31.71126,53.756069 31.83163,13.611666 32.023278,12.441284 c 0.08536,-0.52129 0.302972,-1.180656 0.502095,-1.521354 0.483438,-0.827159 1.597591,-1.8676755 2.534639,-2.3671163 l 0.782386,-0.4170082 h 28.870979 28.870976 l 0.850506,0.4187016 c 1.107572,0.545256 2.172515,1.6167889 2.720967,2.7378049 l 0.429747,0.87839 0.03349,20.439063 c 0.01842,11.241484 0.07007,20.528359 0.114776,20.6375 0.08771,0.214111 0.06504,1.749017 -0.02719,1.841248 -0.03079,0.03079 -0.189685,-0.06866 -0.353108,-0.22099 -0.379359,-0.353605 -2.451499,-1.653871 -2.99331,-1.878296 L 93.947552,52.818291 V 41.986424 31.154557 l -9.425781,4.7e-5 c -5.18418,2.7e-5 -18.312807,0.03966 -29.174726,0.08807 l -19.748942,0.08802 0.03748,20.150047 0.03749,20.150045 0.425125,0.425096 c 0.362601,0.362571 0.557173,0.439769 1.322916,0.524883 0.493787,0.05488 9.742974,0.102848 20.553751,0.106584 l 19.65596,0.0068 0.408289,0.56224 c 0.522116,0.718986 1.491816,1.733253 2.399742,2.510036 l 0.71266,0.609719 -1.043389,0.04416 c -0.573863,0.02429 -10.748267,0.01439 -22.609787,-0.02199 z M 48.399745,21.339256 c 0.921687,-0.338987 1.922003,-1.261772 2.380988,-2.196439 0.326819,-0.66553 0.370465,-0.902467 0.370465,-2.011177 0,-1.065644 -0.0493,-1.357366 -0.324184,-1.918229 -0.48243,-0.984346 -1.512088,-1.950921 -2.458042,-2.30745 -1.096164,-0.413144 -2.73177,-0.344353 -3.706106,0.155874 -1.338617,0.687252 -2.181747,1.843632 -2.468518,3.385659 -0.285864,1.537155 0.489723,3.429696 1.781342,4.34672 1.34253,0.953172 2.819601,1.135147 4.424055,0.545042 z m 18.336848,-0.154683 c 3.056385,-1.495351 3.379121,-5.887371 0.574199,-7.814107 -0.967118,-0.664326 -2.234258,-0.959093 -3.283842,-0.763905 -1.524397,0.283493 -2.703729,1.144871 -3.387974,2.474558 -0.488487,0.949272 -0.56534,2.607649 -0.169494,3.657479 0.473194,1.254974 1.557385,2.292778 2.82929,2.70824 0.909778,0.297175 2.550144,0.172035 3.437821,-0.262265 z m 17.759341,-0.0041 c 3.482261,-1.593205 3.477856,-6.610843 -0.0072,-8.241504 -0.674534,-0.315611 -0.962639,-0.371391 -1.918229,-0.371391 -0.942211,0 -1.246632,0.05726 -1.878079,0.353243 -0.926211,0.434152 -1.795685,1.282755 -2.213425,2.160299 -0.426132,0.895167 -0.523253,2.419096 -0.216297,3.39393 0.813581,2.583764 3.731279,3.850132 6.233266,2.705423 z"
             style="opacity:1;fill:#808080;fill-opacity:0;fill-rule:evenodd;stroke:none;stroke-width:1.5;stroke-linecap:round;stroke-linejoin:miter;stroke-miterlimit:100;stroke-dasharray:none;stroke-opacity:1;paint-order:fill markers stroke" />
          <path
             inkscape:connector-curvature="0"
             id="path946-7"
             d="m 86.396262,79.836501 c -1.158111,-0.196006 -2.702743,-0.679008 -3.768252,-1.178322 -1.037656,-0.486265 -2.995919,-1.71945 -3.165086,-1.993167 -0.05347,-0.08652 0.285062,-0.135909 0.949997,-0.138605 l 1.033069,-0.0042 -0.396875,-0.287718 C 80.3801,75.749486 78.604344,73.986811 78.115531,73.322519 L 77.653143,72.694127 H 76.8237 75.994258 l -0.54188,-1.166286 C 73.51058,67.348514 73.54252,62.9259 75.544748,58.737356 c 1.824014,-3.815731 5.263304,-6.655941 9.490255,-7.837181 1.218827,-0.340606 1.473145,-0.364662 3.819319,-0.361272 2.505856,0.0036 2.923675,0.05814 4.663281,0.608475 0.418529,0.132403 0.429951,0.155948 0.430083,0.886434 l 1.32e-4,0.750419 0.694397,0.380957 c 1.110287,0.609124 1.975289,1.16131 2.579552,1.646688 l 0.56224,0.451622 v -0.875831 c 3e-6,-0.481709 0.05521,-0.875832 0.122695,-0.875832 0.227354,0 2.333408,2.175282 2.954428,3.051548 1.32147,1.864601 2.29984,4.278463 2.61767,6.458405 0.22307,1.529969 0.0963,4.409202 -0.25227,5.729793 -1.49336,5.657707 -5.821695,9.818105 -11.396325,10.954142 -1.358075,0.276759 -4.171334,0.344458 -5.433944,0.130765 z m 5.32438,-3.053041 c 2.770049,-0.658214 5.408752,-2.526752 7.082581,-5.015362 2.569167,-3.819792 2.569167,-9.277085 0,-13.096875 -2.537553,-3.772784 -7.006837,-5.853358 -11.361489,-5.289095 -2.890753,0.374576 -5.315617,1.597726 -7.265784,3.665006 -4.369477,4.631875 -4.342839,11.816733 0.06086,16.416287 2.952689,3.08401 7.249411,4.326215 11.48383,3.320039 z"
             style="opacity:1;fill:#808080;fill-opacity:0;fill-rule:evenodd;stroke:none;stroke-width:1.5;stroke-linecap:round;stroke-linejoin:miter;stroke-miterlimit:100;stroke-dasharray:none;stroke-opacity:1;paint-order:fill markers stroke" />
          <path
             inkscape:connector-curvature="0"
             id="path948-4"
             d="m 86.396262,79.836501 c -1.158111,-0.196006 -2.702743,-0.679008 -3.768252,-1.178322 -1.037656,-0.486265 -2.995919,-1.71945 -3.165086,-1.993167 -0.05347,-0.08652 0.285062,-0.135909 0.949997,-0.138605 l 1.033069,-0.0042 -0.396875,-0.287718 C 80.3801,75.749486 78.604344,73.986811 78.115531,73.322519 L 77.653143,72.694127 H 76.8237 75.994258 l -0.54188,-1.166286 C 73.51058,67.348514 73.54252,62.9259 75.544748,58.737356 c 1.824014,-3.815731 5.263304,-6.655941 9.490255,-7.837181 1.218827,-0.340606 1.473145,-0.364662 3.819319,-0.361272 2.505856,0.0036 2.923675,0.05814 4.663281,0.608475 0.418529,0.132403 0.429951,0.155948 0.430083,0.886434 l 1.32e-4,0.750419 0.694397,0.380957 c 1.110287,0.609124 1.975289,1.16131 2.579552,1.646688 l 0.56224,0.451622 v -0.875831 c 3e-6,-0.481709 0.05521,-0.875832 0.122695,-0.875832 0.227354,0 2.333408,2.175282 2.954428,3.051548 1.32147,1.864601 2.29984,4.278463 2.61767,6.458405 0.22307,1.529969 0.0963,4.409202 -0.25227,5.729793 -1.49336,5.657707 -5.821695,9.818105 -11.396325,10.954142 -1.358075,0.276759 -4.171334,0.344458 -5.433944,0.130765 z m 5.32438,-3.053041 c 2.770049,-0.658214 5.408752,-2.526752 7.082581,-5.015362 2.569167,-3.819792 2.569167,-9.277085 0,-13.096875 -2.537553,-3.772784 -7.006837,-5.853358 -11.361489,-5.289095 -2.890753,0.374576 -5.315617,1.597726 -7.265784,3.665006 -4.369477,4.631875 -4.342839,11.816733 0.06086,16.416287 2.952689,3.08401 7.249411,4.326215 11.48383,3.320039 z"
             style="opacity:1;fill:#808080;fill-opacity:0;fill-rule:evenodd;stroke:none;stroke-width:1.5;stroke-linecap:round;stroke-linejoin:miter;stroke-miterlimit:100;stroke-dasharray:none;stroke-opacity:1;paint-order:fill markers stroke" />
          <path
             inkscape:connector-curvature="0"
             id="path950-5"
             d="m 86.396262,79.836501 c -1.158111,-0.196006 -2.702743,-0.679008 -3.768252,-1.178322 -1.037656,-0.486265 -2.995919,-1.71945 -3.165086,-1.993167 -0.05347,-0.08652 0.285062,-0.135909 0.949997,-0.138605 l 1.033069,-0.0042 -0.396875,-0.287718 C 80.3801,75.749486 78.604344,73.986811 78.115531,73.322519 L 77.653143,72.694127 H 76.8237 75.994258 l -0.54188,-1.166286 C 73.51058,67.348514 73.54252,62.9259 75.544748,58.737356 c 1.824014,-3.815731 5.263304,-6.655941 9.490255,-7.837181 1.218827,-0.340606 1.473145,-0.364662 3.819319,-0.361272 2.505856,0.0036 2.923675,0.05814 4.663281,0.608475 0.418529,0.132403 0.429951,0.155948 0.430083,0.886434 l 1.32e-4,0.750419 0.694397,0.380957 c 1.110287,0.609124 1.975289,1.16131 2.579552,1.646688 l 0.56224,0.451622 v -0.875831 c 3e-6,-0.481709 0.05521,-0.875832 0.122695,-0.875832 0.227354,0 2.333408,2.175282 2.954428,3.051548 1.32147,1.864601 2.29984,4.278463 2.61767,6.458405 0.22307,1.529969 0.0963,4.409202 -0.25227,5.729793 -1.49336,5.657707 -5.821695,9.818105 -11.396325,10.954142 -1.358075,0.276759 -4.171334,0.344458 -5.433944,0.130765 z m 5.32438,-3.053041 c 2.770049,-0.658214 5.408752,-2.526752 7.082581,-5.015362 2.569167,-3.819792 2.569167,-9.277085 0,-13.096875 -2.537553,-3.772784 -7.006837,-5.853358 -11.361489,-5.289095 -2.890753,0.374576 -5.315617,1.597726 -7.265784,3.665006 -4.369477,4.631875 -4.342839,11.816733 0.06086,16.416287 2.952689,3.08401 7.249411,4.326215 11.48383,3.320039 z"
             style="opacity:1;fill:#808080;fill-opacity:0;fill-rule:evenodd;stroke:none;stroke-width:1.5;stroke-linecap:round;stroke-linejoin:miter;stroke-miterlimit:100;stroke-dasharray:none;stroke-opacity:1;paint-order:fill markers stroke" />
          <path
             inkscape:connector-curvature="0"
             id="path952-1"
             d="M 86.934975,79.928819 C 84.626519,79.617664 82.039117,78.575359 80.1881,77.210921 L 79.129766,76.430792 57.500079,76.364646 35.870391,76.2985 35.109365,75.941855 c -1.051526,-0.492781 -2.12589,-1.54546 -2.6371,-2.583873 -0.338177,-0.686932 -0.436813,-1.090237 -0.520578,-2.128501 -0.14057,-1.742406 -0.13336,-55.473788 0.0077,-57.660673 0.09066,-1.405154 0.172633,-1.866968 0.42268,-2.38125 0.447233,-0.91985 1.771197,-2.1847303 2.801435,-2.6764167 L 36.040497,8.1021466 H 64.77612 93.511733 l 0.858663,0.4098022 c 1.075346,0.513215 2.219579,1.6389082 2.746158,2.7016652 0.367779,0.742255 0.397674,0.921917 0.483859,2.907803 0.05052,1.164167 0.09737,10.454561 0.104098,20.645316 l 0.01222,18.528649 1.048538,0.951389 c 3.518061,3.192105 5.320001,7.936923 4.779581,12.585456 -0.39134,3.366143 -1.69506,6.141956 -4.028275,8.57675 -2.21968,2.316318 -4.657553,3.677964 -7.749442,4.328363 -1.214001,0.255373 -3.643821,0.351658 -4.832173,0.191479 z m 4.854903,-3.151455 c 4.18901,-1.094573 7.437104,-4.325609 8.593782,-8.548655 0.41788,-1.525654 0.42601,-4.444537 0.0166,-5.953125 -1.120066,-4.127127 -4.007485,-7.142983 -8.107458,-8.468093 -1.503473,-0.485923 -4.14723,-0.608894 -5.832686,-0.271299 -2.131412,0.426916 -4.103495,1.456053 -5.719443,2.984704 -1.685562,1.594504 -2.762041,3.328853 -3.410566,5.494859 -0.398931,1.332391 -0.491913,4.008448 -0.190894,5.494038 0.989436,4.883066 4.69188,8.516176 9.642528,9.461956 1.280093,0.244551 3.685635,0.151182 5.008152,-0.194385 z M 75.562283,71.761182 c -2.101159,-4.186701 -2.018344,-9.336347 0.217432,-13.520494 1.915539,-3.58484 5.35649,-6.301523 9.342097,-7.375729 1.167296,-0.314611 1.506434,-0.346019 3.731392,-0.345569 2.152084,2.64e-4 2.575099,0.037 3.505729,0.303027 0.582083,0.166394 1.192654,0.333007 1.356826,0.370255 l 0.298492,0.06772 -0.03391,-10.036678 -0.03391,-10.036675 -29.104167,0.04822 c -16.007292,0.02652 -29.148815,0.07468 -29.203385,0.107027 -0.118094,0.06999 -0.106712,27.607776 0.01453,35.130732 l 0.0847,5.25577 0.347012,0.346824 c 0.190854,0.190754 0.548042,0.39429 0.79375,0.452303 0.245705,0.05801 9.15154,0.111569 19.790743,0.119017 l 19.344005,0.01355 z M 48.721495,21.199633 c 0.960892,-0.473046 1.66734,-1.209599 2.142394,-2.233692 0.281483,-0.606806 0.344665,-0.938038 0.343699,-1.801816 -0.0016,-1.362763 -0.450752,-2.424887 -1.401897,-3.314573 -1.003618,-0.938765 -1.655548,-1.183248 -3.153529,-1.182608 -1.113907,5.29e-4 -1.335164,0.04179 -1.946418,0.363456 -1.000699,0.526608 -1.525844,1.039444 -2.026838,1.979327 -0.594979,1.1162 -0.69832,2.555758 -0.26579,3.702428 0.305261,0.809268 1.197015,1.90531 1.907392,2.344346 1.240589,0.766728 3.016935,0.824497 4.400987,0.143132 z m 17.727731,0.111596 c 0.974368,-0.362493 1.807594,-1.151306 2.323857,-2.199984 0.388684,-0.78953 0.434808,-1.003097 0.434808,-2.013265 0,-1.010534 -0.04606,-1.223598 -0.435504,-2.014678 -0.886312,-1.800357 -2.67694,-2.73104 -4.749633,-2.468631 -1.447713,0.183284 -2.799718,1.202036 -3.457453,2.60523 -0.296199,0.631904 -0.353243,0.935635 -0.353243,1.880859 0,1.007391 0.04631,1.221333 0.435504,2.011898 1.071983,2.177507 3.443063,3.07604 5.801664,2.198571 z m 18.280955,-0.242557 c 0.923274,-0.493091 1.577554,-1.198481 2.036233,-2.195293 0.240514,-0.522695 0.299648,-0.88546 0.300186,-1.841545 5.29e-4,-1.034005 -0.04755,-1.288799 -0.365842,-1.936949 -0.447562,-0.91137 -1.321142,-1.740937 -2.322299,-2.205291 -1.065895,-0.494382 -2.549406,-0.495755 -3.610922,-0.0033 -1.043191,0.483912 -1.761913,1.184003 -2.264876,2.206159 -0.387016,0.78653 -0.430593,0.991902 -0.425034,2.003211 0.0052,0.950746 0.06226,1.240536 0.364987,1.854438 0.571299,1.158547 1.29303,1.851639 2.424462,2.328257 0.663461,0.279482 0.939599,0.320514 1.900711,0.282419 0.976799,-0.03871 1.234525,-0.103338 1.962394,-0.492067 z"
             style="opacity:1;fill:#666666;fill-opacity:0;fill-rule:evenodd;stroke:none;stroke-width:1.5;stroke-linecap:round;stroke-linejoin:miter;stroke-miterlimit:100;stroke-dasharray:none;stroke-opacity:1;paint-order:fill markers stroke" />
          <path
             inkscape:connector-curvature="0"
             id="path954-0"
             d="M 86.934975,79.928819 C 84.626519,79.617664 82.039117,78.575359 80.1881,77.210921 L 79.129766,76.430792 57.500079,76.364646 35.870391,76.2985 35.109365,75.941855 c -1.051526,-0.492781 -2.12589,-1.54546 -2.6371,-2.583873 -0.338177,-0.686932 -0.436813,-1.090237 -0.520578,-2.128501 -0.14057,-1.742406 -0.13336,-55.473788 0.0077,-57.660673 0.09066,-1.405154 0.172633,-1.866968 0.42268,-2.38125 0.447233,-0.91985 1.771197,-2.1847303 2.801435,-2.6764167 L 36.040497,8.1021466 H 64.77612 93.511733 l 0.858663,0.4098022 c 1.075346,0.513215 2.219579,1.6389082 2.746158,2.7016652 0.367779,0.742255 0.397674,0.921917 0.483859,2.907803 0.05052,1.164167 0.09737,10.454561 0.104098,20.645316 l 0.01222,18.528649 1.048538,0.951389 c 3.518061,3.192105 5.320001,7.936923 4.779581,12.585456 -0.39134,3.366143 -1.69506,6.141956 -4.028275,8.57675 -2.21968,2.316318 -4.657553,3.677964 -7.749442,4.328363 -1.214001,0.255373 -3.643821,0.351658 -4.832173,0.191479 z m 4.854903,-3.151455 c 4.18901,-1.094573 7.437104,-4.325609 8.593782,-8.548655 0.41788,-1.525654 0.42601,-4.444537 0.0166,-5.953125 -1.120066,-4.127127 -4.007485,-7.142983 -8.107458,-8.468093 -1.503473,-0.485923 -4.14723,-0.608894 -5.832686,-0.271299 -2.131412,0.426916 -4.103495,1.456053 -5.719443,2.984704 -1.685562,1.594504 -2.762041,3.328853 -3.410566,5.494859 -0.398931,1.332391 -0.491913,4.008448 -0.190894,5.494038 0.989436,4.883066 4.69188,8.516176 9.642528,9.461956 1.280093,0.244551 3.685635,0.151182 5.008152,-0.194385 z M 75.562283,71.761182 c -2.101159,-4.186701 -2.018344,-9.336347 0.217432,-13.520494 1.915539,-3.58484 5.35649,-6.301523 9.342097,-7.375729 1.167296,-0.314611 1.506434,-0.346019 3.731392,-0.345569 2.152084,2.64e-4 2.575099,0.037 3.505729,0.303027 0.582083,0.166394 1.192654,0.333007 1.356826,0.370255 l 0.298492,0.06772 -0.03391,-10.036678 -0.03391,-10.036675 -29.104167,0.04822 c -16.007292,0.02652 -29.148815,0.07468 -29.203385,0.107027 -0.118094,0.06999 -0.106712,27.607776 0.01453,35.130732 l 0.0847,5.25577 0.347012,0.346824 c 0.190854,0.190754 0.548042,0.39429 0.79375,0.452303 0.245705,0.05801 9.15154,0.111569 19.790743,0.119017 l 19.344005,0.01355 z M 48.721495,21.199633 c 0.960892,-0.473046 1.66734,-1.209599 2.142394,-2.233692 0.281483,-0.606806 0.344665,-0.938038 0.343699,-1.801816 -0.0016,-1.362763 -0.450752,-2.424887 -1.401897,-3.314573 -1.003618,-0.938765 -1.655548,-1.183248 -3.153529,-1.182608 -1.113907,5.29e-4 -1.335164,0.04179 -1.946418,0.363456 -1.000699,0.526608 -1.525844,1.039444 -2.026838,1.979327 -0.594979,1.1162 -0.69832,2.555758 -0.26579,3.702428 0.305261,0.809268 1.197015,1.90531 1.907392,2.344346 1.240589,0.766728 3.016935,0.824497 4.400987,0.143132 z m 17.727731,0.111596 c 0.974368,-0.362493 1.807594,-1.151306 2.323857,-2.199984 0.388684,-0.78953 0.434808,-1.003097 0.434808,-2.013265 0,-1.010534 -0.04606,-1.223598 -0.435504,-2.014678 -0.886312,-1.800357 -2.67694,-2.73104 -4.749633,-2.468631 -1.447713,0.183284 -2.799718,1.202036 -3.457453,2.60523 -0.296199,0.631904 -0.353243,0.935635 -0.353243,1.880859 0,1.007391 0.04631,1.221333 0.435504,2.011898 1.071983,2.177507 3.443063,3.07604 5.801664,2.198571 z m 18.280955,-0.242557 c 0.923274,-0.493091 1.577554,-1.198481 2.036233,-2.195293 0.240514,-0.522695 0.299648,-0.88546 0.300186,-1.841545 5.29e-4,-1.034005 -0.04755,-1.288799 -0.365842,-1.936949 -0.447562,-0.91137 -1.321142,-1.740937 -2.322299,-2.205291 -1.065895,-0.494382 -2.549406,-0.495755 -3.610922,-0.0033 -1.043191,0.483912 -1.761913,1.184003 -2.264876,2.206159 -0.387016,0.78653 -0.430593,0.991902 -0.425034,2.003211 0.0052,0.950746 0.06226,1.240536 0.364987,1.854438 0.571299,1.158547 1.29303,1.851639 2.424462,2.328257 0.663461,0.279482 0.939599,0.320514 1.900711,0.282419 0.976799,-0.03871 1.234525,-0.103338 1.962394,-0.492067 z"
             style="opacity:1;fill:#666666;fill-opacity:0;fill-rule:evenodd;stroke:none;stroke-width:1.5;stroke-linecap:round;stroke-linejoin:miter;stroke-miterlimit:100;stroke-dasharray:none;stroke-opacity:1;paint-order:fill markers stroke" />
          <path
             inkscape:connector-curvature="0"
             id="path956-9"
             d="M 86.934975,79.928819 C 84.626519,79.617664 82.039117,78.575359 80.1881,77.210921 L 79.129766,76.430792 57.500079,76.364646 35.870391,76.2985 35.109365,75.941855 c -1.051526,-0.492781 -2.12589,-1.54546 -2.6371,-2.583873 -0.338177,-0.686932 -0.436813,-1.090237 -0.520578,-2.128501 -0.14057,-1.742406 -0.13336,-55.473788 0.0077,-57.660673 0.09066,-1.405154 0.172633,-1.866968 0.42268,-2.38125 0.447233,-0.91985 1.771197,-2.1847303 2.801435,-2.6764167 L 36.040497,8.1021466 H 64.77612 93.511733 l 0.858663,0.4098022 c 1.075346,0.513215 2.219579,1.6389082 2.746158,2.7016652 0.367779,0.742255 0.397674,0.921917 0.483859,2.907803 0.05052,1.164167 0.09737,10.454561 0.104098,20.645316 l 0.01222,18.528649 1.048538,0.951389 c 3.518061,3.192105 5.320001,7.936923 4.779581,12.585456 -0.39134,3.366143 -1.69506,6.141956 -4.028275,8.57675 -2.21968,2.316318 -4.657553,3.677964 -7.749442,4.328363 -1.214001,0.255373 -3.643821,0.351658 -4.832173,0.191479 z m 4.854903,-3.151455 c 4.18901,-1.094573 7.437104,-4.325609 8.593782,-8.548655 0.41788,-1.525654 0.42601,-4.444537 0.0166,-5.953125 -1.120066,-4.127127 -4.007485,-7.142983 -8.107458,-8.468093 -1.503473,-0.485923 -4.14723,-0.608894 -5.832686,-0.271299 -2.131412,0.426916 -4.103495,1.456053 -5.719443,2.984704 -1.685562,1.594504 -2.762041,3.328853 -3.410566,5.494859 -0.398931,1.332391 -0.491913,4.008448 -0.190894,5.494038 0.989436,4.883066 4.69188,8.516176 9.642528,9.461956 1.280093,0.244551 3.685635,0.151182 5.008152,-0.194385 z M 75.562283,71.761182 c -2.101159,-4.186701 -2.018344,-9.336347 0.217432,-13.520494 1.915539,-3.58484 5.35649,-6.301523 9.342097,-7.375729 1.167296,-0.314611 1.506434,-0.346019 3.731392,-0.345569 2.152084,2.64e-4 2.575099,0.037 3.505729,0.303027 0.582083,0.166394 1.192654,0.333007 1.356826,0.370255 l 0.298492,0.06772 -0.03391,-10.036678 -0.03391,-10.036675 -29.104167,0.04822 c -16.007292,0.02652 -29.148815,0.07468 -29.203385,0.107027 -0.118094,0.06999 -0.106712,27.607776 0.01453,35.130732 l 0.0847,5.25577 0.347012,0.346824 c 0.190854,0.190754 0.548042,0.39429 0.79375,0.452303 0.245705,0.05801 9.15154,0.111569 19.790743,0.119017 l 19.344005,0.01355 z M 48.721495,21.199633 c 0.960892,-0.473046 1.66734,-1.209599 2.142394,-2.233692 0.281483,-0.606806 0.344665,-0.938038 0.343699,-1.801816 -0.0016,-1.362763 -0.450752,-2.424887 -1.401897,-3.314573 -1.003618,-0.938765 -1.655548,-1.183248 -3.153529,-1.182608 -1.113907,5.29e-4 -1.335164,0.04179 -1.946418,0.363456 -1.000699,0.526608 -1.525844,1.039444 -2.026838,1.979327 -0.594979,1.1162 -0.69832,2.555758 -0.26579,3.702428 0.305261,0.809268 1.197015,1.90531 1.907392,2.344346 1.240589,0.766728 3.016935,0.824497 4.400987,0.143132 z m 17.727731,0.111596 c 0.974368,-0.362493 1.807594,-1.151306 2.323857,-2.199984 0.388684,-0.78953 0.434808,-1.003097 0.434808,-2.013265 0,-1.010534 -0.04606,-1.223598 -0.435504,-2.014678 -0.886312,-1.800357 -2.67694,-2.73104 -4.749633,-2.468631 -1.447713,0.183284 -2.799718,1.202036 -3.457453,2.60523 -0.296199,0.631904 -0.353243,0.935635 -0.353243,1.880859 0,1.007391 0.04631,1.221333 0.435504,2.011898 1.071983,2.177507 3.443063,3.07604 5.801664,2.198571 z m 18.280955,-0.242557 c 0.923274,-0.493091 1.577554,-1.198481 2.036233,-2.195293 0.240514,-0.522695 0.299648,-0.88546 0.300186,-1.841545 5.29e-4,-1.034005 -0.04755,-1.288799 -0.365842,-1.936949 -0.447562,-0.91137 -1.321142,-1.740937 -2.322299,-2.205291 -1.065895,-0.494382 -2.549406,-0.495755 -3.610922,-0.0033 -1.043191,0.483912 -1.761913,1.184003 -2.264876,2.206159 -0.387016,0.78653 -0.430593,0.991902 -0.425034,2.003211 0.0052,0.950746 0.06226,1.240536 0.364987,1.854438 0.571299,1.158547 1.29303,1.851639 2.424462,2.328257 0.663461,0.279482 0.939599,0.320514 1.900711,0.282419 0.976799,-0.03871 1.234525,-0.103338 1.962394,-0.492067 z"
             style="opacity:1;fill:#666666;fill-opacity:0;fill-rule:evenodd;stroke:none;stroke-width:1.5;stroke-linecap:round;stroke-linejoin:miter;stroke-miterlimit:100;stroke-dasharray:none;stroke-opacity:1;paint-order:fill markers stroke" />
          <path
             inkscape:connector-curvature="0"
             id="path958-5"
             d="M 86.934975,79.928819 C 84.626519,79.617664 82.039117,78.575359 80.1881,77.210921 L 79.129766,76.430792 57.500079,76.364646 35.870391,76.2985 35.109365,75.941855 c -1.051526,-0.492781 -2.12589,-1.54546 -2.6371,-2.583873 -0.338177,-0.686932 -0.436813,-1.090237 -0.520578,-2.128501 -0.14057,-1.742406 -0.13336,-55.473788 0.0077,-57.660673 0.09066,-1.405154 0.172633,-1.866968 0.42268,-2.38125 0.447233,-0.91985 1.771197,-2.1847303 2.801435,-2.6764167 L 36.040497,8.1021466 H 64.77612 93.511733 l 0.858663,0.4098022 c 1.075346,0.513215 2.219579,1.6389082 2.746158,2.7016652 0.367779,0.742255 0.397674,0.921917 0.483859,2.907803 0.05052,1.164167 0.09737,10.454561 0.104098,20.645316 l 0.01222,18.528649 1.048538,0.951389 c 3.518061,3.192105 5.320001,7.936923 4.779581,12.585456 -0.39134,3.366143 -1.69506,6.141956 -4.028275,8.57675 -2.21968,2.316318 -4.657553,3.677964 -7.749442,4.328363 -1.214001,0.255373 -3.643821,0.351658 -4.832173,0.191479 z m 4.854903,-3.151455 c 4.18901,-1.094573 7.437104,-4.325609 8.593782,-8.548655 0.41788,-1.525654 0.42601,-4.444537 0.0166,-5.953125 -1.120066,-4.127127 -4.007485,-7.142983 -8.107458,-8.468093 -1.503473,-0.485923 -4.14723,-0.608894 -5.832686,-0.271299 -2.131412,0.426916 -4.103495,1.456053 -5.719443,2.984704 -1.685562,1.594504 -2.762041,3.328853 -3.410566,5.494859 -0.398931,1.332391 -0.491913,4.008448 -0.190894,5.494038 0.989436,4.883066 4.69188,8.516176 9.642528,9.461956 1.280093,0.244551 3.685635,0.151182 5.008152,-0.194385 z M 75.562283,71.761182 c -2.101159,-4.186701 -2.018344,-9.336347 0.217432,-13.520494 1.915539,-3.58484 5.35649,-6.301523 9.342097,-7.375729 1.167296,-0.314611 1.506434,-0.346019 3.731392,-0.345569 2.152084,2.64e-4 2.575099,0.037 3.505729,0.303027 0.582083,0.166394 1.192654,0.333007 1.356826,0.370255 l 0.298492,0.06772 -0.03391,-10.036678 -0.03391,-10.036675 -29.104167,0.04822 c -16.007292,0.02652 -29.148815,0.07468 -29.203385,0.107027 -0.118094,0.06999 -0.106712,27.607776 0.01453,35.130732 l 0.0847,5.25577 0.347012,0.346824 c 0.190854,0.190754 0.548042,0.39429 0.79375,0.452303 0.245705,0.05801 9.15154,0.111569 19.790743,0.119017 l 19.344005,0.01355 z M 48.721495,21.199633 c 0.960892,-0.473046 1.66734,-1.209599 2.142394,-2.233692 0.281483,-0.606806 0.344665,-0.938038 0.343699,-1.801816 -0.0016,-1.362763 -0.450752,-2.424887 -1.401897,-3.314573 -1.003618,-0.938765 -1.655548,-1.183248 -3.153529,-1.182608 -1.113907,5.29e-4 -1.335164,0.04179 -1.946418,0.363456 -1.000699,0.526608 -1.525844,1.039444 -2.026838,1.979327 -0.594979,1.1162 -0.69832,2.555758 -0.26579,3.702428 0.305261,0.809268 1.197015,1.90531 1.907392,2.344346 1.240589,0.766728 3.016935,0.824497 4.400987,0.143132 z m 17.727731,0.111596 c 0.974368,-0.362493 1.807594,-1.151306 2.323857,-2.199984 0.388684,-0.78953 0.434808,-1.003097 0.434808,-2.013265 0,-1.010534 -0.04606,-1.223598 -0.435504,-2.014678 -0.886312,-1.800357 -2.67694,-2.73104 -4.749633,-2.468631 -1.447713,0.183284 -2.799718,1.202036 -3.457453,2.60523 -0.296199,0.631904 -0.353243,0.935635 -0.353243,1.880859 0,1.007391 0.04631,1.221333 0.435504,2.011898 1.071983,2.177507 3.443063,3.07604 5.801664,2.198571 z m 18.280955,-0.242557 c 0.923274,-0.493091 1.577554,-1.198481 2.036233,-2.195293 0.240514,-0.522695 0.299648,-0.88546 0.300186,-1.841545 5.29e-4,-1.034005 -0.04755,-1.288799 -0.365842,-1.936949 -0.447562,-0.91137 -1.321142,-1.740937 -2.322299,-2.205291 -1.065895,-0.494382 -2.549406,-0.495755 -3.610922,-0.0033 -1.043191,0.483912 -1.761913,1.184003 -2.264876,2.206159 -0.387016,0.78653 -0.430593,0.991902 -0.425034,2.003211 0.0052,0.950746 0.06226,1.240536 0.364987,1.854438 0.571299,1.158547 1.29303,1.851639 2.424462,2.328257 0.663461,0.279482 0.939599,0.320514 1.900711,0.282419 0.976799,-0.03871 1.234525,-0.103338 1.962394,-0.492067 z"
             style="opacity:1;fill:#666666;fill-opacity:0;fill-rule:evenodd;stroke:none;stroke-width:1.5;stroke-linecap:round;stroke-linejoin:miter;stroke-miterlimit:100;stroke-dasharray:none;stroke-opacity:1;paint-order:fill markers stroke" />
          <path
             inkscape:connector-curvature="0"
             id="path960-0"
             d="M 86.934975,79.928819 C 84.626519,79.617664 82.039117,78.575359 80.1881,77.210921 L 79.129766,76.430792 57.500079,76.364646 35.870391,76.2985 35.109365,75.941855 c -1.051526,-0.492781 -2.12589,-1.54546 -2.6371,-2.583873 -0.338177,-0.686932 -0.436813,-1.090237 -0.520578,-2.128501 -0.14057,-1.742406 -0.13336,-55.473788 0.0077,-57.660673 0.09066,-1.405154 0.172633,-1.866968 0.42268,-2.38125 0.447233,-0.91985 1.771197,-2.1847303 2.801435,-2.6764167 L 36.040497,8.1021466 H 64.77612 93.511733 l 0.858663,0.4098022 c 1.075346,0.513215 2.219579,1.6389082 2.746158,2.7016652 0.367779,0.742255 0.397674,0.921917 0.483859,2.907803 0.05052,1.164167 0.09737,10.454561 0.104098,20.645316 l 0.01222,18.528649 1.048538,0.951389 c 3.518061,3.192105 5.320001,7.936923 4.779581,12.585456 -0.39134,3.366143 -1.69506,6.141956 -4.028275,8.57675 -2.21968,2.316318 -4.657553,3.677964 -7.749442,4.328363 -1.214001,0.255373 -3.643821,0.351658 -4.832173,0.191479 z m 4.854903,-3.151455 c 4.18901,-1.094573 7.437104,-4.325609 8.593782,-8.548655 0.41788,-1.525654 0.42601,-4.444537 0.0166,-5.953125 -1.120066,-4.127127 -4.007485,-7.142983 -8.107458,-8.468093 -1.503473,-0.485923 -4.14723,-0.608894 -5.832686,-0.271299 -2.131412,0.426916 -4.103495,1.456053 -5.719443,2.984704 -1.685562,1.594504 -2.762041,3.328853 -3.410566,5.494859 -0.398931,1.332391 -0.491913,4.008448 -0.190894,5.494038 0.989436,4.883066 4.69188,8.516176 9.642528,9.461956 1.280093,0.244551 3.685635,0.151182 5.008152,-0.194385 z M 75.562283,71.761182 c -2.101159,-4.186701 -2.018344,-9.336347 0.217432,-13.520494 1.915539,-3.58484 5.35649,-6.301523 9.342097,-7.375729 1.167296,-0.314611 1.506434,-0.346019 3.731392,-0.345569 2.152084,2.64e-4 2.575099,0.037 3.505729,0.303027 0.582083,0.166394 1.192654,0.333007 1.356826,0.370255 l 0.298492,0.06772 -0.03391,-10.036678 -0.03391,-10.036675 -29.104167,0.04822 c -16.007292,0.02652 -29.148815,0.07468 -29.203385,0.107027 -0.118094,0.06999 -0.106712,27.607776 0.01453,35.130732 l 0.0847,5.25577 0.347012,0.346824 c 0.190854,0.190754 0.548042,0.39429 0.79375,0.452303 0.245705,0.05801 9.15154,0.111569 19.790743,0.119017 l 19.344005,0.01355 z M 48.721495,21.199633 c 0.960892,-0.473046 1.66734,-1.209599 2.142394,-2.233692 0.281483,-0.606806 0.344665,-0.938038 0.343699,-1.801816 -0.0016,-1.362763 -0.450752,-2.424887 -1.401897,-3.314573 -1.003618,-0.938765 -1.655548,-1.183248 -3.153529,-1.182608 -1.113907,5.29e-4 -1.335164,0.04179 -1.946418,0.363456 -1.000699,0.526608 -1.525844,1.039444 -2.026838,1.979327 -0.594979,1.1162 -0.69832,2.555758 -0.26579,3.702428 0.305261,0.809268 1.197015,1.90531 1.907392,2.344346 1.240589,0.766728 3.016935,0.824497 4.400987,0.143132 z m 17.727731,0.111596 c 0.974368,-0.362493 1.807594,-1.151306 2.323857,-2.199984 0.388684,-0.78953 0.434808,-1.003097 0.434808,-2.013265 0,-1.010534 -0.04606,-1.223598 -0.435504,-2.014678 -0.886312,-1.800357 -2.67694,-2.73104 -4.749633,-2.468631 -1.447713,0.183284 -2.799718,1.202036 -3.457453,2.60523 -0.296199,0.631904 -0.353243,0.935635 -0.353243,1.880859 0,1.007391 0.04631,1.221333 0.435504,2.011898 1.071983,2.177507 3.443063,3.07604 5.801664,2.198571 z m 18.280955,-0.242557 c 0.923274,-0.493091 1.577554,-1.198481 2.036233,-2.195293 0.240514,-0.522695 0.299648,-0.88546 0.300186,-1.841545 5.29e-4,-1.034005 -0.04755,-1.288799 -0.365842,-1.936949 -0.447562,-0.91137 -1.321142,-1.740937 -2.322299,-2.205291 -1.065895,-0.494382 -2.549406,-0.495755 -3.610922,-0.0033 -1.043191,0.483912 -1.761913,1.184003 -2.264876,2.206159 -0.387016,0.78653 -0.430593,0.991902 -0.425034,2.003211 0.0052,0.950746 0.06226,1.240536 0.364987,1.854438 0.571299,1.158547 1.29303,1.851639 2.424462,2.328257 0.663461,0.279482 0.939599,0.320514 1.900711,0.282419 0.976799,-0.03871 1.234525,-0.103338 1.962394,-0.492067 z"
             style="opacity:1;fill:#999999;fill-opacity:0;fill-rule:evenodd;stroke:none;stroke-width:1.5;stroke-linecap:round;stroke-linejoin:miter;stroke-miterlimit:100;stroke-dasharray:none;stroke-opacity:1;paint-order:fill markers stroke" />
          <path
             inkscape:connector-curvature="0"
             id="path962-3"
             d="M 86.934975,79.928819 C 84.626519,79.617664 82.039117,78.575359 80.1881,77.210921 L 79.129766,76.430792 57.500079,76.364646 35.870391,76.2985 35.109365,75.941855 c -1.051526,-0.492781 -2.12589,-1.54546 -2.6371,-2.583873 -0.338177,-0.686932 -0.436813,-1.090237 -0.520578,-2.128501 -0.14057,-1.742406 -0.13336,-55.473788 0.0077,-57.660673 0.09066,-1.405154 0.172633,-1.866968 0.42268,-2.38125 0.447233,-0.91985 1.771197,-2.1847303 2.801435,-2.6764167 L 36.040497,8.1021466 H 64.77612 93.511733 l 0.858663,0.4098022 c 1.075346,0.513215 2.219579,1.6389082 2.746158,2.7016652 0.367779,0.742255 0.397674,0.921917 0.483859,2.907803 0.05052,1.164167 0.09737,10.454561 0.104098,20.645316 l 0.01222,18.528649 1.048538,0.951389 c 3.518061,3.192105 5.320001,7.936923 4.779581,12.585456 -0.39134,3.366143 -1.69506,6.141956 -4.028275,8.57675 -2.21968,2.316318 -4.657553,3.677964 -7.749442,4.328363 -1.214001,0.255373 -3.643821,0.351658 -4.832173,0.191479 z m 4.854903,-3.151455 c 4.18901,-1.094573 7.437104,-4.325609 8.593782,-8.548655 0.41788,-1.525654 0.42601,-4.444537 0.0166,-5.953125 -1.120066,-4.127127 -4.007485,-7.142983 -8.107458,-8.468093 -1.503473,-0.485923 -4.14723,-0.608894 -5.832686,-0.271299 -2.131412,0.426916 -4.103495,1.456053 -5.719443,2.984704 -1.685562,1.594504 -2.762041,3.328853 -3.410566,5.494859 -0.398931,1.332391 -0.491913,4.008448 -0.190894,5.494038 0.989436,4.883066 4.69188,8.516176 9.642528,9.461956 1.280093,0.244551 3.685635,0.151182 5.008152,-0.194385 z M 75.562283,71.761182 c -2.101159,-4.186701 -2.018344,-9.336347 0.217432,-13.520494 1.915539,-3.58484 5.35649,-6.301523 9.342097,-7.375729 1.167296,-0.314611 1.506434,-0.346019 3.731392,-0.345569 2.152084,2.64e-4 2.575099,0.037 3.505729,0.303027 0.582083,0.166394 1.192654,0.333007 1.356826,0.370255 l 0.298492,0.06772 -0.03391,-10.036678 -0.03391,-10.036675 -29.104167,0.04822 c -16.007292,0.02652 -29.148815,0.07468 -29.203385,0.107027 -0.118094,0.06999 -0.106712,27.607776 0.01453,35.130732 l 0.0847,5.25577 0.347012,0.346824 c 0.190854,0.190754 0.548042,0.39429 0.79375,0.452303 0.245705,0.05801 9.15154,0.111569 19.790743,0.119017 l 19.344005,0.01355 z M 48.721495,21.199633 c 0.960892,-0.473046 1.66734,-1.209599 2.142394,-2.233692 0.281483,-0.606806 0.344665,-0.938038 0.343699,-1.801816 -0.0016,-1.362763 -0.450752,-2.424887 -1.401897,-3.314573 -1.003618,-0.938765 -1.655548,-1.183248 -3.153529,-1.182608 -1.113907,5.29e-4 -1.335164,0.04179 -1.946418,0.363456 -1.000699,0.526608 -1.525844,1.039444 -2.026838,1.979327 -0.594979,1.1162 -0.69832,2.555758 -0.26579,3.702428 0.305261,0.809268 1.197015,1.90531 1.907392,2.344346 1.240589,0.766728 3.016935,0.824497 4.400987,0.143132 z m 17.727731,0.111596 c 0.974368,-0.362493 1.807594,-1.151306 2.323857,-2.199984 0.388684,-0.78953 0.434808,-1.003097 0.434808,-2.013265 0,-1.010534 -0.04606,-1.223598 -0.435504,-2.014678 -0.886312,-1.800357 -2.67694,-2.73104 -4.749633,-2.468631 -1.447713,0.183284 -2.799718,1.202036 -3.457453,2.60523 -0.296199,0.631904 -0.353243,0.935635 -0.353243,1.880859 0,1.007391 0.04631,1.221333 0.435504,2.011898 1.071983,2.177507 3.443063,3.07604 5.801664,2.198571 z m 18.280955,-0.242557 c 0.923274,-0.493091 1.577554,-1.198481 2.036233,-2.195293 0.240514,-0.522695 0.299648,-0.88546 0.300186,-1.841545 5.29e-4,-1.034005 -0.04755,-1.288799 -0.365842,-1.936949 -0.447562,-0.91137 -1.321142,-1.740937 -2.322299,-2.205291 -1.065895,-0.494382 -2.549406,-0.495755 -3.610922,-0.0033 -1.043191,0.483912 -1.761913,1.184003 -2.264876,2.206159 -0.387016,0.78653 -0.430593,0.991902 -0.425034,2.003211 0.0052,0.950746 0.06226,1.240536 0.364987,1.854438 0.571299,1.158547 1.29303,1.851639 2.424462,2.328257 0.663461,0.279482 0.939599,0.320514 1.900711,0.282419 0.976799,-0.03871 1.234525,-0.103338 1.962394,-0.492067 z"
             style="opacity:1;fill:#666666;fill-opacity:0;fill-rule:evenodd;stroke:none;stroke-width:1.5;stroke-linecap:round;stroke-linejoin:miter;stroke-miterlimit:100;stroke-dasharray:none;stroke-opacity:1;paint-order:fill markers stroke" />
          <path
             inkscape:connector-curvature="0"
             id="path964-7"
             d="M 43.080287,58.968292 V 54.40423 h 4.7625 4.7625 v 4.564062 4.564063 h -4.7625 -4.7625 z"
             style="opacity:1;fill:#999999;fill-opacity:0;fill-rule:evenodd;stroke:none;stroke-width:1.5;stroke-linecap:round;stroke-linejoin:miter;stroke-miterlimit:100;stroke-dasharray:none;stroke-opacity:1;paint-order:fill markers stroke" />
          <path
             inkscape:connector-curvature="0"
             id="path966-9"
             d="M 86.934975,79.928819 C 84.626519,79.617664 82.039117,78.575359 80.1881,77.210921 L 79.129766,76.430792 57.500079,76.364646 35.870391,76.2985 35.109365,75.941855 c -1.051526,-0.492781 -2.12589,-1.54546 -2.6371,-2.583873 -0.338177,-0.686932 -0.436813,-1.090237 -0.520578,-2.128501 -0.14057,-1.742406 -0.13336,-55.473788 0.0077,-57.660673 0.09066,-1.405154 0.172633,-1.866968 0.42268,-2.38125 0.447233,-0.91985 1.771197,-2.1847303 2.801435,-2.6764167 L 36.040497,8.1021466 H 64.77612 93.511733 l 0.858663,0.4098022 c 1.075346,0.513215 2.219579,1.6389082 2.746158,2.7016652 0.367779,0.742255 0.397674,0.921917 0.483859,2.907803 0.05052,1.164167 0.09737,10.454561 0.104098,20.645316 l 0.01222,18.528649 1.048538,0.951389 c 3.518061,3.192105 5.320001,7.936923 4.779581,12.585456 -0.39134,3.366143 -1.69506,6.141956 -4.028275,8.57675 -2.21968,2.316318 -4.657553,3.677964 -7.749442,4.328363 -1.214001,0.255373 -3.643821,0.351658 -4.832173,0.191479 z m 4.854903,-3.151455 c 4.18901,-1.094573 7.437104,-4.325609 8.593782,-8.548655 0.41788,-1.525654 0.42601,-4.444537 0.0166,-5.953125 -1.120066,-4.127127 -4.007485,-7.142983 -8.107458,-8.468093 -1.503473,-0.485923 -4.14723,-0.608894 -5.832686,-0.271299 -2.131412,0.426916 -4.103495,1.456053 -5.719443,2.984704 -1.685562,1.594504 -2.762041,3.328853 -3.410566,5.494859 -0.398931,1.332391 -0.491913,4.008448 -0.190894,5.494038 0.989436,4.883066 4.69188,8.516176 9.642528,9.461956 1.280093,0.244551 3.685635,0.151182 5.008152,-0.194385 z M 75.562283,71.761182 c -2.101159,-4.186701 -2.018344,-9.336347 0.217432,-13.520494 1.915539,-3.58484 5.35649,-6.301523 9.342097,-7.375729 1.167296,-0.314611 1.506434,-0.346019 3.731392,-0.345569 2.152084,2.64e-4 2.575099,0.037 3.505729,0.303027 0.582083,0.166394 1.192654,0.333007 1.356826,0.370255 l 0.298492,0.06772 -0.03391,-10.036678 -0.03391,-10.036675 -29.104167,0.04822 c -16.007292,0.02652 -29.148815,0.07468 -29.203385,0.107027 -0.118094,0.06999 -0.106712,27.607776 0.01453,35.130732 l 0.0847,5.25577 0.347012,0.346824 c 0.190854,0.190754 0.548042,0.39429 0.79375,0.452303 0.245705,0.05801 9.15154,0.111569 19.790743,0.119017 l 19.344005,0.01355 z M 48.721495,21.199633 c 0.960892,-0.473046 1.66734,-1.209599 2.142394,-2.233692 0.281483,-0.606806 0.344665,-0.938038 0.343699,-1.801816 -0.0016,-1.362763 -0.450752,-2.424887 -1.401897,-3.314573 -1.003618,-0.938765 -1.655548,-1.183248 -3.153529,-1.182608 -1.113907,5.29e-4 -1.335164,0.04179 -1.946418,0.363456 -1.000699,0.526608 -1.525844,1.039444 -2.026838,1.979327 -0.594979,1.1162 -0.69832,2.555758 -0.26579,3.702428 0.305261,0.809268 1.197015,1.90531 1.907392,2.344346 1.240589,0.766728 3.016935,0.824497 4.400987,0.143132 z m 17.727731,0.111596 c 0.974368,-0.362493 1.807594,-1.151306 2.323857,-2.199984 0.388684,-0.78953 0.434808,-1.003097 0.434808,-2.013265 0,-1.010534 -0.04606,-1.223598 -0.435504,-2.014678 -0.886312,-1.800357 -2.67694,-2.73104 -4.749633,-2.468631 -1.447713,0.183284 -2.799718,1.202036 -3.457453,2.60523 -0.296199,0.631904 -0.353243,0.935635 -0.353243,1.880859 0,1.007391 0.04631,1.221333 0.435504,2.011898 1.071983,2.177507 3.443063,3.07604 5.801664,2.198571 z m 18.280955,-0.242557 c 0.923274,-0.493091 1.577554,-1.198481 2.036233,-2.195293 0.240514,-0.522695 0.299648,-0.88546 0.300186,-1.841545 5.29e-4,-1.034005 -0.04755,-1.288799 -0.365842,-1.936949 -0.447562,-0.91137 -1.321142,-1.740937 -2.322299,-2.205291 -1.065895,-0.494382 -2.549406,-0.495755 -3.610922,-0.0033 -1.043191,0.483912 -1.761913,1.184003 -2.264876,2.206159 -0.387016,0.78653 -0.430593,0.991902 -0.425034,2.003211 0.0052,0.950746 0.06226,1.240536 0.364987,1.854438 0.571299,1.158547 1.29303,1.851639 2.424462,2.328257 0.663461,0.279482 0.939599,0.320514 1.900711,0.282419 0.976799,-0.03871 1.234525,-0.103338 1.962394,-0.492067 z"
             style="opacity:1;fill:#666666;fill-opacity:0;fill-rule:evenodd;stroke:none;stroke-width:1.5;stroke-linecap:round;stroke-linejoin:miter;stroke-miterlimit:100;stroke-dasharray:none;stroke-opacity:1;paint-order:fill markers stroke" />
          <path
             inkscape:connector-curvature="0"
             id="path968-7"
             d="M 86.934975,79.928819 C 84.626519,79.617664 82.039117,78.575359 80.1881,77.210921 L 79.129766,76.430792 57.500079,76.364646 35.870391,76.2985 35.109365,75.941855 c -1.051526,-0.492781 -2.12589,-1.54546 -2.6371,-2.583873 -0.338177,-0.686932 -0.436813,-1.090237 -0.520578,-2.128501 -0.14057,-1.742406 -0.13336,-55.473788 0.0077,-57.660673 0.09066,-1.405154 0.172633,-1.866968 0.42268,-2.38125 0.447233,-0.91985 1.771197,-2.1847303 2.801435,-2.6764167 L 36.040497,8.1021466 H 64.77612 93.511733 l 0.858663,0.4098022 c 1.075346,0.513215 2.219579,1.6389082 2.746158,2.7016652 0.367779,0.742255 0.397674,0.921917 0.483859,2.907803 0.05052,1.164167 0.09737,10.454561 0.104098,20.645316 l 0.01222,18.528649 1.048538,0.951389 c 3.518061,3.192105 5.320001,7.936923 4.779581,12.585456 -0.39134,3.366143 -1.69506,6.141956 -4.028275,8.57675 -2.21968,2.316318 -4.657553,3.677964 -7.749442,4.328363 -1.214001,0.255373 -3.643821,0.351658 -4.832173,0.191479 z m 4.854903,-3.151455 c 4.18901,-1.094573 7.437104,-4.325609 8.593782,-8.548655 0.41788,-1.525654 0.42601,-4.444537 0.0166,-5.953125 -1.120066,-4.127127 -4.007485,-7.142983 -8.107458,-8.468093 -1.503473,-0.485923 -4.14723,-0.608894 -5.832686,-0.271299 -2.131412,0.426916 -4.103495,1.456053 -5.719443,2.984704 -1.685562,1.594504 -2.762041,3.328853 -3.410566,5.494859 -0.398931,1.332391 -0.491913,4.008448 -0.190894,5.494038 0.989436,4.883066 4.69188,8.516176 9.642528,9.461956 1.280093,0.244551 3.685635,0.151182 5.008152,-0.194385 z M 75.562283,71.761182 c -2.101159,-4.186701 -2.018344,-9.336347 0.217432,-13.520494 1.915539,-3.58484 5.35649,-6.301523 9.342097,-7.375729 1.167296,-0.314611 1.506434,-0.346019 3.731392,-0.345569 2.152084,2.64e-4 2.575099,0.037 3.505729,0.303027 0.582083,0.166394 1.192654,0.333007 1.356826,0.370255 l 0.298492,0.06772 -0.03391,-10.036678 -0.03391,-10.036675 -29.104167,0.04822 c -16.007292,0.02652 -29.148815,0.07468 -29.203385,0.107027 -0.118094,0.06999 -0.106712,27.607776 0.01453,35.130732 l 0.0847,5.25577 0.347012,0.346824 c 0.190854,0.190754 0.548042,0.39429 0.79375,0.452303 0.245705,0.05801 9.15154,0.111569 19.790743,0.119017 l 19.344005,0.01355 z M 48.721495,21.199633 c 0.960892,-0.473046 1.66734,-1.209599 2.142394,-2.233692 0.281483,-0.606806 0.344665,-0.938038 0.343699,-1.801816 -0.0016,-1.362763 -0.450752,-2.424887 -1.401897,-3.314573 -1.003618,-0.938765 -1.655548,-1.183248 -3.153529,-1.182608 -1.113907,5.29e-4 -1.335164,0.04179 -1.946418,0.363456 -1.000699,0.526608 -1.525844,1.039444 -2.026838,1.979327 -0.594979,1.1162 -0.69832,2.555758 -0.26579,3.702428 0.305261,0.809268 1.197015,1.90531 1.907392,2.344346 1.240589,0.766728 3.016935,0.824497 4.400987,0.143132 z m 17.727731,0.111596 c 0.974368,-0.362493 1.807594,-1.151306 2.323857,-2.199984 0.388684,-0.78953 0.434808,-1.003097 0.434808,-2.013265 0,-1.010534 -0.04606,-1.223598 -0.435504,-2.014678 -0.886312,-1.800357 -2.67694,-2.73104 -4.749633,-2.468631 -1.447713,0.183284 -2.799718,1.202036 -3.457453,2.60523 -0.296199,0.631904 -0.353243,0.935635 -0.353243,1.880859 0,1.007391 0.04631,1.221333 0.435504,2.011898 1.071983,2.177507 3.443063,3.07604 5.801664,2.198571 z m 18.280955,-0.242557 c 0.923274,-0.493091 1.577554,-1.198481 2.036233,-2.195293 0.240514,-0.522695 0.299648,-0.88546 0.300186,-1.841545 5.29e-4,-1.034005 -0.04755,-1.288799 -0.365842,-1.936949 -0.447562,-0.91137 -1.321142,-1.740937 -2.322299,-2.205291 -1.065895,-0.494382 -2.549406,-0.495755 -3.610922,-0.0033 -1.043191,0.483912 -1.761913,1.184003 -2.264876,2.206159 -0.387016,0.78653 -0.430593,0.991902 -0.425034,2.003211 0.0052,0.950746 0.06226,1.240536 0.364987,1.854438 0.571299,1.158547 1.29303,1.851639 2.424462,2.328257 0.663461,0.279482 0.939599,0.320514 1.900711,0.282419 0.976799,-0.03871 1.234525,-0.103338 1.962394,-0.492067 z"
             style="opacity:1;fill:#666666;fill-opacity:0;fill-rule:evenodd;stroke:none;stroke-width:1.5;stroke-linecap:round;stroke-linejoin:miter;stroke-miterlimit:100;stroke-dasharray:none;stroke-opacity:1;paint-order:fill markers stroke" />
          <path
             inkscape:connector-curvature="0"
             id="path970-9"
             d="M 86.934975,79.928819 C 84.626519,79.617664 82.039117,78.575359 80.1881,77.210921 L 79.129766,76.430792 57.500079,76.364646 35.870391,76.2985 35.109365,75.941855 c -1.051526,-0.492781 -2.12589,-1.54546 -2.6371,-2.583873 -0.338177,-0.686932 -0.436813,-1.090237 -0.520578,-2.128501 -0.14057,-1.742406 -0.13336,-55.473788 0.0077,-57.660673 0.09066,-1.405154 0.172633,-1.866968 0.42268,-2.38125 0.447233,-0.91985 1.771197,-2.1847303 2.801435,-2.6764167 L 36.040497,8.1021466 H 64.77612 93.511733 l 0.858663,0.4098022 c 1.075346,0.513215 2.219579,1.6389082 2.746158,2.7016652 0.367779,0.742255 0.397674,0.921917 0.483859,2.907803 0.05052,1.164167 0.09737,10.454561 0.104098,20.645316 l 0.01222,18.528649 1.048538,0.951389 c 3.518061,3.192105 5.320001,7.936923 4.779581,12.585456 -0.39134,3.366143 -1.69506,6.141956 -4.028275,8.57675 -2.21968,2.316318 -4.657553,3.677964 -7.749442,4.328363 -1.214001,0.255373 -3.643821,0.351658 -4.832173,0.191479 z m 4.854903,-3.151455 c 4.18901,-1.094573 7.437104,-4.325609 8.593782,-8.548655 0.41788,-1.525654 0.42601,-4.444537 0.0166,-5.953125 -1.120066,-4.127127 -4.007485,-7.142983 -8.107458,-8.468093 -1.503473,-0.485923 -4.14723,-0.608894 -5.832686,-0.271299 -2.131412,0.426916 -4.103495,1.456053 -5.719443,2.984704 -1.685562,1.594504 -2.762041,3.328853 -3.410566,5.494859 -0.398931,1.332391 -0.491913,4.008448 -0.190894,5.494038 0.989436,4.883066 4.69188,8.516176 9.642528,9.461956 1.280093,0.244551 3.685635,0.151182 5.008152,-0.194385 z M 75.562283,71.761182 c -2.101159,-4.186701 -2.018344,-9.336347 0.217432,-13.520494 1.915539,-3.58484 5.35649,-6.301523 9.342097,-7.375729 1.167296,-0.314611 1.506434,-0.346019 3.731392,-0.345569 2.152084,2.64e-4 2.575099,0.037 3.505729,0.303027 0.582083,0.166394 1.192654,0.333007 1.356826,0.370255 l 0.298492,0.06772 -0.03391,-10.036678 -0.03391,-10.036675 -29.104167,0.04822 c -16.007292,0.02652 -29.148815,0.07468 -29.203385,0.107027 -0.118094,0.06999 -0.106712,27.607776 0.01453,35.130732 l 0.0847,5.25577 0.347012,0.346824 c 0.190854,0.190754 0.548042,0.39429 0.79375,0.452303 0.245705,0.05801 9.15154,0.111569 19.790743,0.119017 l 19.344005,0.01355 z M 48.721495,21.199633 c 0.960892,-0.473046 1.66734,-1.209599 2.142394,-2.233692 0.281483,-0.606806 0.344665,-0.938038 0.343699,-1.801816 -0.0016,-1.362763 -0.450752,-2.424887 -1.401897,-3.314573 -1.003618,-0.938765 -1.655548,-1.183248 -3.153529,-1.182608 -1.113907,5.29e-4 -1.335164,0.04179 -1.946418,0.363456 -1.000699,0.526608 -1.525844,1.039444 -2.026838,1.979327 -0.594979,1.1162 -0.69832,2.555758 -0.26579,3.702428 0.305261,0.809268 1.197015,1.90531 1.907392,2.344346 1.240589,0.766728 3.016935,0.824497 4.400987,0.143132 z m 17.727731,0.111596 c 0.974368,-0.362493 1.807594,-1.151306 2.323857,-2.199984 0.388684,-0.78953 0.434808,-1.003097 0.434808,-2.013265 0,-1.010534 -0.04606,-1.223598 -0.435504,-2.014678 -0.886312,-1.800357 -2.67694,-2.73104 -4.749633,-2.468631 -1.447713,0.183284 -2.799718,1.202036 -3.457453,2.60523 -0.296199,0.631904 -0.353243,0.935635 -0.353243,1.880859 0,1.007391 0.04631,1.221333 0.435504,2.011898 1.071983,2.177507 3.443063,3.07604 5.801664,2.198571 z m 18.280955,-0.242557 c 0.923274,-0.493091 1.577554,-1.198481 2.036233,-2.195293 0.240514,-0.522695 0.299648,-0.88546 0.300186,-1.841545 5.29e-4,-1.034005 -0.04755,-1.288799 -0.365842,-1.936949 -0.447562,-0.91137 -1.321142,-1.740937 -2.322299,-2.205291 -1.065895,-0.494382 -2.549406,-0.495755 -3.610922,-0.0033 -1.043191,0.483912 -1.761913,1.184003 -2.264876,2.206159 -0.387016,0.78653 -0.430593,0.991902 -0.425034,2.003211 0.0052,0.950746 0.06226,1.240536 0.364987,1.854438 0.571299,1.158547 1.29303,1.851639 2.424462,2.328257 0.663461,0.279482 0.939599,0.320514 1.900711,0.282419 0.976799,-0.03871 1.234525,-0.103338 1.962394,-0.492067 z"
             style="opacity:1;fill:#666666;fill-opacity:0;fill-rule:evenodd;stroke:none;stroke-width:1.5;stroke-linecap:round;stroke-linejoin:miter;stroke-miterlimit:100;stroke-dasharray:none;stroke-opacity:1;paint-order:fill markers stroke" />
          <path
             inkscape:connector-curvature="0"
             id="path1277"
             d="m 35.601783,75.738623 c -1.04415,-0.24906 -2.2135,-1.28108 -3.13263,-2.76471 l -0.49028,-0.7914 v -30.13398 -30.13398 l 0.63308,-0.98968 c 0.6735,-1.05285 1.91957,-2.18501 2.83406,-2.575 0.43736,-0.18651 6.64853,-0.25158 29.25303,-0.30646 l 28.69777,-0.0697 1.26106,0.86164 c 1.25068,0.85456 2.01488,1.73615 2.44147,2.81652 0.26378,0.66805 0.48263,39.91511 0.23231,41.66118 l -0.15239,1.06294 -1.53943,-0.9694 -1.53943,-0.96939 -0.005,-8.98026 c -0.003,-4.93914 -0.0594,-9.80111 -0.12581,-10.80437 l -0.12079,-1.82411 -17.88552,1.6e-4 c -9.83704,10e-5 -23.01356,0.0561 -29.28115,0.12455 l -11.39563,0.12437 0.13053,19.84718 c 0.0778,11.82849 0.20412,20.12285 0.31266,20.52951 0.10017,0.37529 0.32854,0.75031 0.50749,0.83337 0.17896,0.0831 9.51786,0.18265 20.75311,0.2213 l 20.42774,0.0703 0.3249,0.49951 c 0.1787,0.27473 0.82874,1.0257 1.44453,1.66882 l 1.11961,1.1693 -22.05934,-0.0191 c -12.13265,-0.0105 -22.32332,-0.0821 -22.64594,-0.15907 z m 12.52714,-54.46528 c 1.10332,-0.30637 2.45742,-1.73046 2.82116,-2.96699 0.36749,-1.2493 0.37355,-1.76334 0.0341,-2.89139 -0.98062,-3.25838 -5.02288,-4.35438 -7.58009,-2.05523 -1.2147,1.09212 -1.57402,2.03335 -1.48083,3.87893 0.0612,1.21114 0.14986,1.50959 0.65671,2.20978 0.32229,0.44524 0.98265,1.08314 1.46746,1.41756 0.77833,0.5369 1.02682,0.60792 2.12388,0.607 0.68333,-5.3e-4 1.56428,-0.0904 1.95766,-0.19966 z m 18.60767,-0.0888 c 0.80514,-0.33508 2.18014,-1.60862 2.61639,-2.42329 0.18931,-0.35353 0.30485,-1.04599 0.31218,-1.87089 0.01,-1.10912 -0.0717,-1.46012 -0.53281,-2.29265 -0.63844,-1.15271 -1.49878,-1.8647 -2.68439,-2.22152 -1.09659,-0.33002 -1.62337,-0.32323 -2.83492,0.0366 -3.90389,1.15933 -4.38235,6.75568 -0.73304,8.57421 1.14961,0.57288 2.75697,0.65522 3.85659,0.19757 z m 17.23628,-0.19062 c 3.22026,-0.95631 4.18666,-5.11054 1.74133,-7.48541 -1.41955,-1.37865 -3.95213,-1.62397 -5.50416,-0.53317 -1.32723,0.93281 -1.90296,1.93342 -1.98904,3.45691 -0.0635,1.12383 -0.004,1.44454 0.4294,2.33126 0.70656,1.44417 2.25411,2.45034 3.85522,2.50656 0.26429,0.009 0.92456,-0.11499 1.46725,-0.27615 z"
             style="opacity:1;fill:#999999;fill-opacity:1;fill-rule:evenodd;stroke:none;stroke-width:2.12132025;stroke-linecap:round;stroke-linejoin:miter;stroke-miterlimit:100;stroke-dasharray:none;stroke-opacity:1;paint-order:fill markers stroke" />
          <path
             d="M 102.1186,65.243912 A 13.298245,13.298245 0 0 1 88.8236,78.542157 13.298245,13.298245 0 0 1 75.522107,65.250411 13.298245,13.298245 0 0 1 88.810602,51.94567 13.298245,13.298245 0 0 1 102.11859,65.230914"
             sodipodi:open="true"
             sodipodi:end="6.2822079"
             sodipodi:start="0"
             sodipodi:ry="13.298245"
             sodipodi:rx="13.298245"
             sodipodi:cy="65.243912"
             sodipodi:cx="88.820351"
             sodipodi:type="arc"
             id="path1279"
             style="opacity:1;fill:none;fill-opacity:1;fill-rule:evenodd;stroke:#999999;stroke-width:3.18948317;stroke-linecap:round;stroke-linejoin:miter;stroke-miterlimit:100;stroke-dasharray:none;stroke-opacity:1;paint-order:fill markers stroke" />
        </g>
        <rect
           style="opacity:1;fill:#999999;fill-opacity:1;fill-rule:evenodd;stroke:none;stroke-width:4.62437201;stroke-linecap:round;stroke-linejoin:miter;stroke-miterlimit:100;stroke-dasharray:none;stroke-opacity:1;paint-order:fill markers stroke"
           id="rect1305"
           width="5.4184976"
           height="18.178185"
           x="43.917107"
           y="-0.017891526"
           ry="2.7092488" />
        <rect
           style="opacity:1;fill:#999999;fill-opacity:1;fill-rule:evenodd;stroke:none;stroke-width:4.62437201;stroke-linecap:round;stroke-linejoin:miter;stroke-miterlimit:100;stroke-dasharray:none;stroke-opacity:1;paint-order:fill markers stroke"
           id="rect1305-1"
           width="5.4184976"
           height="18.178185"
           x="62.24596"
           y="0.044241931"
           ry="2.7092488" />
        <rect
           style="opacity:1;fill:#999999;fill-opacity:1;fill-rule:evenodd;stroke:none;stroke-width:4.62437201;stroke-linecap:round;stroke-linejoin:miter;stroke-miterlimit:100;stroke-dasharray:none;stroke-opacity:1;paint-order:fill markers stroke"
           id="rect1305-6"
           width="5.4184976"
           height="18.178185"
           x="79.840752"
           y="0.044241965"
           ry="2.7092488" />
        <rect
           style="opacity:1;fill:#999999;fill-opacity:1;fill-rule:evenodd;stroke:none;stroke-width:3.5;stroke-linecap:round;stroke-linejoin:miter;stroke-miterlimit:100;stroke-dasharray:none;stroke-opacity:1;paint-order:fill markers stroke"
           id="rect1332"
           width="2.3152218"
           height="8.2786722"
           x="87.121872"
           y="58.032288"
           ry="1.1576109"
           rx="0" />
        <rect
           style="opacity:1;fill:#999999;fill-opacity:1;fill-rule:evenodd;stroke:none;stroke-width:4.04063272;stroke-linecap:round;stroke-linejoin:miter;stroke-miterlimit:100;stroke-dasharray:none;stroke-opacity:1;paint-order:fill markers stroke"
           id="rect1332-5"
           width="2.6728461"
           height="9.5574493"
           x="-13.702621"
           y="107.99117"
           ry="1.336423"
           rx="0"
           transform="rotate(-60)" />
      </g>
    </g>
  </g>
</svg>
