<?xml version="1.0" encoding="UTF-8" standalone="no"?>
<!-- Created with Inkscape (http://www.inkscape.org/) -->

<svg
   xmlns:dc="http://purl.org/dc/elements/1.1/"
   xmlns:cc="http://creativecommons.org/ns#"
   xmlns:rdf="http://www.w3.org/1999/02/22-rdf-syntax-ns#"
   xmlns:svg="http://www.w3.org/2000/svg"
   xmlns="http://www.w3.org/2000/svg"
   xmlns:sodipodi="http://sodipodi.sourceforge.net/DTD/sodipodi-0.dtd"
   xmlns:inkscape="http://www.inkscape.org/namespaces/inkscape"
   width="18.229557"
   height="18.234724"
   viewBox="0 0 4.8232369 4.8246039"
   version="1.1"
   id="svg8"
   inkscape:version="0.92.5 (2060ec1f9f, 2020-04-08)"
   sodipodi:docname="game.svg">
  <defs
     id="defs2" />
  <sodipodi:namedview
     id="base"
     pagecolor="#ffffff"
     bordercolor="#666666"
     borderopacity="1.0"
     inkscape:pageopacity="0.0"
     inkscape:pageshadow="2"
     inkscape:zoom="44.8"
     inkscape:cx="3.8284004"
     inkscape:cy="12.19354"
     inkscape:document-units="mm"
     inkscape:current-layer="layer1"
     showgrid="false"
     units="px"
     fit-margin-top="0.1"
     fit-margin-left="0.1"
     fit-margin-right="0.1"
     fit-margin-bottom="0.1"
     inkscape:window-width="1920"
     inkscape:window-height="1017"
     inkscape:window-x="1912"
     inkscape:window-y="-8"
     inkscape:window-maximized="1" />
  <metadata
     id="metadata5">
    <rdf:RDF>
      <cc:Work
         rdf:about="">
        <dc:format>image/svg+xml</dc:format>
        <dc:type
           rdf:resource="http://purl.org/dc/dcmitype/StillImage" />
        <dc:title></dc:title>
      </cc:Work>
    </rdf:RDF>
  </metadata>
  <g
     inkscape:label="Layer 1"
     inkscape:groupmode="layer"
     id="layer1"
     transform="translate(8.7654141,-293.49539)">
    <g
       transform="matrix(0.02289701,0,0,0.02289701,-8.7597534,291.51324)"
       id="layer1-9"
       inkscape:label="Layer 1"
       style="fill:#999999">
      <g
         inkscape:label="Layer 1"
         id="layer1-3"
         transform="translate(-0.75595243,-0.15119078)"
         style="fill:#999999">
        <g
           id="layer1-5"
           inkscape:label="Layer 1"
           transform="translate(0.65815486,0.08180176)"
           style="fill:#999999">
          <path
             d="m 84.300009,244.27306 a 50.278984,50.278984 0 0 1 -70.935646,-4.90579 50.278984,50.278984 0 0 1 4.905522,-70.93567 50.278984,50.278984 0 0 1 70.935684,4.90524 50.278984,50.278984 0 0 1 -4.904967,70.93571 L 51.285095,206.3522 Z"
             sodipodi:end="0.85443297"
             sodipodi:start="0.85444862"
             sodipodi:ry="50.278984"
             sodipodi:rx="50.278984"
             sodipodi:cy="206.3522"
             sodipodi:cx="51.285095"
             sodipodi:type="arc"
             id="path1396-05-7"
             style="fill:#999999;fill-opacity:1;fill-rule:evenodd;stroke:none;stroke-width:15.45811749;stroke-miterlimit:4;stroke-dasharray:none;stroke-opacity:0.2713568;paint-order:fill markers stroke" />
          <path
             d="m 192.13304,244.00926 a 50.278984,50.278984 0 0 1 -70.94215,-4.80653 50.278984,50.278984 0 0 1 4.80567,-70.94221 50.278984,50.278984 0 0 1 70.94227,4.80482 50.278984,50.278984 0 0 1 -4.80395,70.94232 l -33.06962,-37.87317 z"
             sodipodi:end="0.85300524"
             sodipodi:start="0.85305362"
             sodipodi:ry="50.278984"
             sodipodi:rx="50.278984"
             sodipodi:cy="206.13449"
             sodipodi:cx="159.06526"
             sodipodi:type="arc"
             id="path1396-0-3-5"
             style="fill:#999999;fill-opacity:1;fill-rule:evenodd;stroke:none;stroke-width:15.45811749;stroke-miterlimit:4;stroke-dasharray:none;stroke-opacity:0.2713568;paint-order:fill markers stroke" />
          <path
             d="m 138.78779,175.99293 a 50.278984,50.278984 0 0 1 -70.932987,-4.90274 50.278984,50.278984 0 0 1 4.896744,-70.9334 50.278984,50.278984 0 0 1 70.933813,4.89075 50.278984,50.278984 0 0 1 -4.88475,70.93422 l -33.02774,-37.90969 z"
             sodipodi:end="0.85411043"
             sodipodi:start="0.85444862"
             sodipodi:ry="50.278984"
             sodipodi:rx="50.278984"
             sodipodi:cy="138.07207"
             sodipodi:cx="105.77287"
             sodipodi:type="arc"
             id="path1396-4-4-0"
             style="fill:#999999;fill-opacity:1;fill-rule:evenodd;stroke:none;stroke-width:15.45811749;stroke-miterlimit:4;stroke-dasharray:none;stroke-opacity:0.2713568;paint-order:fill markers stroke" />
          <rect
             y="186.95229"
             x="89.203766"
             height="108.35083"
             width="32.012745"
             id="rect1461-4-7"
             style="fill:#999999;fill-opacity:1;fill-rule:evenodd;stroke:none;stroke-width:14.81382847;stroke-miterlimit:4;stroke-dasharray:none;stroke-opacity:0.2713568;paint-order:fill markers stroke" />
          <path
             inkscape:connector-curvature="0"
             id="path1558"
             d="m 69.600025,295.88873 c -3.641304,-0.89498 -6.954553,-3.54142 -8.633407,-6.89591 -1.10186,-2.20158 -1.413848,-3.51888 -1.413848,-5.96968 0,-2.39531 0.308182,-3.74178 1.332857,-5.82344 1.640803,-3.33327 4.396708,-5.69321 8.072155,-6.91235 0.99904,-0.33136 1.317169,-0.35486 5.027896,-0.37123 4.543078,-0.02 5.298568,-0.15098 7.770393,-1.34646 3.495087,-1.69044 5.837347,-4.45751 7.175368,-8.47678 l 0.431137,-1.29507 0.05461,-14.58852 0.05461,-14.58853 h 15.905094 15.90509 l 0.0515,14.58853 c 0.05,14.16923 0.0604,14.61917 0.3632,15.65504 0.8056,2.7557 2.0608,4.84084 4.0162,6.67171 1.79747,1.68301 3.90629,2.81495 6.34451,3.40556 1.41691,0.34321 4.49956,0.34736 5.87926,0.008 0.93208,-0.22933 1.13655,-0.2315 2.23219,-0.0236 4.35327,0.82581 7.83056,3.48152 9.68584,7.39729 0.90246,1.90477 1.1907,3.26617 1.1907,5.62383 0,1.62603 -0.0688,2.31218 -0.32785,3.27576 -0.67335,2.50324 -1.87629,4.51863 -3.78449,6.34042 -1.95295,1.86447 -4.33899,3.06735 -6.89906,3.47799 -0.66726,0.10703 -12.12391,0.15571 -35.1191,0.14904 -33.080657,-0.009 -34.165201,-0.0189 -35.314861,-0.30141 z"
             style="fill:#999999;fill-opacity:1;fill-rule:evenodd;stroke:none;stroke-width:5.25233746;stroke-miterlimit:4;stroke-dasharray:none;stroke-opacity:0.2713568;paint-order:fill markers stroke" />
        </g>
      </g>
    </g>
  </g>
</svg>
