<?xml version="1.0" encoding="UTF-8" standalone="no"?>
<!-- Created with Inkscape (http://www.inkscape.org/) -->

<svg
   xmlns:dc="http://purl.org/dc/elements/1.1/"
   xmlns:cc="http://creativecommons.org/ns#"
   xmlns:rdf="http://www.w3.org/1999/02/22-rdf-syntax-ns#"
   xmlns:svg="http://www.w3.org/2000/svg"
   xmlns="http://www.w3.org/2000/svg"
   xmlns:sodipodi="http://sodipodi.sourceforge.net/DTD/sodipodi-0.dtd"
   xmlns:inkscape="http://www.inkscape.org/namespaces/inkscape"
   width="21.151011"
   height="16.582928"
   viewBox="0 0 5.5962049 4.3875664"
   version="1.1"
   id="svg8"
   inkscape:version="0.92.5 (2060ec1f9f, 2020-04-08)"
   sodipodi:docname="sing-out.svg">
  <defs
     id="defs2" />
  <sodipodi:namedview
     id="base"
     pagecolor="#ffffff"
     bordercolor="#666666"
     borderopacity="1.0"
     inkscape:pageopacity="0.0"
     inkscape:pageshadow="2"
     inkscape:zoom="5.6"
     inkscape:cx="76.832136"
     inkscape:cy="23.25811"
     inkscape:document-units="mm"
     inkscape:current-layer="layer1"
     showgrid="false"
     units="px"
     fit-margin-top="0.1"
     fit-margin-left="0.1"
     fit-margin-right="0.1"
     fit-margin-bottom="0.1"
     inkscape:window-width="1920"
     inkscape:window-height="1017"
     inkscape:window-x="1912"
     inkscape:window-y="-8"
     inkscape:window-maximized="1" />
  <metadata
     id="metadata5">
    <rdf:RDF>
      <cc:Work
         rdf:about="">
        <dc:format>image/svg+xml</dc:format>
        <dc:type
           rdf:resource="http://purl.org/dc/dcmitype/StillImage" />
        <dc:title></dc:title>
      </cc:Work>
    </rdf:RDF>
  </metadata>
  <g
     inkscape:label="Layer 1"
     inkscape:groupmode="layer"
     id="layer1"
     transform="translate(13.902201,-312.03763)">
    <g
       transform="matrix(0.02485839,0,0,0.02485839,-14.084743,309.19872)"
       id="layer1-8"
       inkscape:label="Layer 1"
       style="fill:#999999">
      <rect
         ry="14.700168"
         rx="0"
         y="173.02162"
         x="62.194363"
         height="58.800671"
         width="122.60382"
         id="rect1398-8-8"
         style="fill:#999999;fill-opacity:1;fill-rule:evenodd;stroke:none;stroke-width:6.65921164;stroke-miterlimit:4;stroke-dasharray:none;stroke-opacity:1;paint-order:fill markers stroke" />
      <rect
         transform="matrix(-0.02923602,-0.99957254,0.99859019,-0.05308131,0,0)"
         ry="13.557878"
         y="150.88705"
         x="-228.61125"
         height="62.463135"
         width="31.340843"
         id="rect1404-2-3"
         style="fill:#999999;fill-opacity:1;fill-rule:evenodd;stroke:none;stroke-width:4.55483913;stroke-miterlimit:4;stroke-dasharray:none;stroke-opacity:1;paint-order:fill markers stroke" />
      <rect
         ry="0.57647717"
         y="174.75105"
         x="126.77251"
         height="1.1529543"
         width="5.7647715"
         id="rect1408-7-0"
         style="fill:#999999;fill-opacity:1;fill-rule:evenodd;stroke:none;stroke-width:5.39228296;stroke-miterlimit:4;stroke-dasharray:none;stroke-opacity:1;paint-order:fill markers stroke" />
      <rect
         transform="matrix(0.69003203,0.72377883,-0.69003203,0.72377883,0,0)"
         ry="19.354433"
         y="-28.950733"
         x="176.89644"
         height="38.708862"
         width="120.57588"
         id="rect1433-6-3"
         style="fill:#999999;fill-opacity:1;fill-rule:evenodd;stroke:none;stroke-width:8.32361031;stroke-miterlimit:4;stroke-dasharray:none;stroke-opacity:1;paint-order:fill markers stroke" />
      <rect
         transform="matrix(-0.7219963,0.69189692,-0.7219963,-0.69189692,0,0)"
         ry="19.302269"
         y="-313.73572"
         x="-4.0849414"
         height="38.604534"
         width="120.25089"
         id="rect1433-1-6-6"
         style="fill:#999999;fill-opacity:1;fill-rule:evenodd;stroke:none;stroke-width:8.30117607;stroke-miterlimit:4;stroke-dasharray:none;stroke-opacity:1;paint-order:fill markers stroke" />
      <rect
         transform="matrix(0.71782026,0.69622847,-0.69811665,0.71598404,0,0)"
         ry="15.047627"
         y="-18.742565"
         x="204.31543"
         height="61.755325"
         width="108.49708"
         id="rect1474-4-2"
         style="fill:#999999;fill-opacity:1;fill-rule:evenodd;stroke:none;stroke-width:5.51993847;stroke-miterlimit:4;stroke-dasharray:none;stroke-opacity:1;paint-order:fill markers stroke" />
      <g
         style="fill:#999999"
         transform="matrix(1.0784566,0,0,1.0784566,-6.1076313,-19.355833)"
         id="g1133">
        <g
           style="fill:#999999"
           id="g1141">
          <rect
             transform="scale(-1,1)"
             ry="5.4210272"
             y="139.80037"
             x="-33.942543"
             height="130.10466"
             width="20.483248"
             id="rect1501-4"
             style="fill:#999999;fill-opacity:1;fill-rule:evenodd;stroke:none;stroke-width:5.90898895;stroke-miterlimit:4;stroke-dasharray:none;stroke-opacity:1;paint-order:fill markers stroke" />
          <rect
             transform="scale(-1,1)"
             ry="2.8392267"
             y="126.15466"
             x="-90.105728"
             height="18.657791"
             width="48.495842"
             id="rect1482-9-8-6"
             style="fill:#999999;fill-opacity:1;fill-rule:evenodd;stroke:none;stroke-width:4.17088175;stroke-miterlimit:4;stroke-dasharray:none;stroke-opacity:1;paint-order:fill markers stroke" />
          <path
             inkscape:connector-curvature="0"
             id="path1578-1"
             d="m 32.911309,161.4305 c 0,-5.34379 0.06371,-6.01776 0.734447,-7.76528 1.805025,-4.7031 6.728648,-8.25588 12.604398,-9.09508 0.949807,-0.13566 2.493456,-0.16357 9.044466,-0.16357 h 7.899204 l -0.183037,-0.97745 c -0.83493,-4.45844 -3.358794,-8.44543 -7.342557,-11.59918 -2.217765,-1.7557 -3.918155,-2.72324 -6.693854,-3.80889 -1.725197,-0.67476 -3.743505,-1.23704 -5.680405,-1.58249 -1.042186,-0.18588 -1.862874,-0.23954 -4.31868,-0.28239 -2.662848,-0.0465 -3.220478,-0.0265 -4.580239,0.16415 -4.317575,0.60532 -8.271679,2.04797 -11.547341,4.21305 -1.410175,0.93208 -3.803107,3.00079 -4.80514,4.1541 -1.806515,2.07926 -3.398227,5.10346 -4.11428,7.81705 -0.26082,0.98839 -0.293487,1.4095 -0.299169,3.85692 -0.0081,3.13967 0.120265,3.93589 0.990273,6.18164 2.5463,6.57274 9.096338,11.76743 17.098486,13.56043 l 1.193428,0.26741 z"
             style="fill:#999999;fill-opacity:1;fill-rule:evenodd;stroke:none;stroke-width:2.20653486;stroke-miterlimit:4;stroke-dasharray:none;stroke-opacity:1;paint-order:fill markers stroke" />
          <rect
             transform="scale(-1,1)"
             ry="0"
             y="126.1407"
             x="-45.296444"
             height="2.9034307"
             width="6.7240562"
             id="rect1580-6"
             style="fill:#999999;fill-opacity:1;fill-rule:evenodd;stroke:none;stroke-width:5.00994492;stroke-miterlimit:4;stroke-dasharray:none;stroke-opacity:1;paint-order:fill markers stroke" />
          <path
             inkscape:connector-curvature="0"
             id="path1578-9-1"
             d="m 32.672489,248.33265 c -0.161988,5.55629 -0.120721,6.25845 0.475765,8.09009 1.605225,4.92946 6.264948,8.73087 11.928874,9.73154 0.915569,0.16177 2.409402,0.22443 8.752599,0.36728 l 7.648594,0.17221 -0.206851,1.01231 c -0.943567,4.61752 -3.508211,8.70797 -7.461191,11.90027 -2.200607,1.77715 -3.876392,2.74607 -6.596917,3.81436 -1.690939,0.66399 -3.662238,1.20462 -5.548187,1.52157 -1.014757,0.17056 -1.811023,0.20844 -4.19023,0.19948 -2.579777,-0.0104 -3.119113,-0.0426 -4.42997,-0.27057 -4.162252,-0.72351 -7.947217,-2.30973 -11.053314,-4.63231 -1.337203,-0.9999 -3.591515,-3.20302 -4.526796,-4.42402 -1.686189,-2.2013 -3.135756,-5.38044 -3.746848,-8.21753 -0.222602,-1.03337 -0.241453,-1.47195 -0.172776,-4.01681 0.08772,-3.26468 0.23577,-4.08979 1.146224,-6.40585 2.664722,-6.77858 9.164418,-12.03705 16.967069,-13.72686 l 1.163687,-0.25202 z"
             style="fill:#999999;fill-opacity:1;fill-rule:evenodd;stroke:none;stroke-width:2.21472764;stroke-miterlimit:4;stroke-dasharray:none;stroke-opacity:1;paint-order:fill markers stroke" />
          <rect
             transform="scale(-1,1)"
             ry="2.8795385"
             y="266.37042"
             x="-90.147194"
             height="18.922697"
             width="52.435184"
             id="rect1482-9-8-8-0"
             style="fill:#999999;fill-opacity:1;fill-rule:evenodd;stroke:none;stroke-width:4.41660976;stroke-miterlimit:4;stroke-dasharray:none;stroke-opacity:1;paint-order:fill markers stroke" />
        </g>
      </g>
      <rect
         ry="0.29619411"
         y="132.95831"
         x="122.99345"
         height="140.98854"
         width="35.151787"
         id="rect3008-9"
         style="opacity:1;fill:#999999;fill-opacity:1;fill-rule:evenodd;stroke:none;stroke-width:1.53878903;stroke-linecap:round;stroke-linejoin:miter;stroke-miterlimit:4;stroke-dasharray:none;stroke-opacity:1;paint-order:fill markers stroke" />
    </g>
  </g>
</svg>
