<?xml version="1.0" encoding="UTF-8" standalone="no"?>
<!-- Created with Inkscape (http://www.inkscape.org/) -->

<svg
   xmlns:dc="http://purl.org/dc/elements/1.1/"
   xmlns:cc="http://creativecommons.org/ns#"
   xmlns:rdf="http://www.w3.org/1999/02/22-rdf-syntax-ns#"
   xmlns:svg="http://www.w3.org/2000/svg"
   xmlns="http://www.w3.org/2000/svg"
   xmlns:sodipodi="http://sodipodi.sourceforge.net/DTD/sodipodi-0.dtd"
   xmlns:inkscape="http://www.inkscape.org/namespaces/inkscape"
   width="25.388514"
   height="26.077347"
   viewBox="0 0 6.7173776 6.8996315"
   version="1.1"
   id="svg8"
   inkscape:version="0.92.5 (2060ec1f9f, 2020-04-08)"
   sodipodi:docname="user.svg">
  <defs
     id="defs2" />
  <sodipodi:namedview
     id="base"
     pagecolor="#ffffff"
     bordercolor="#666666"
     borderopacity="1.0"
     inkscape:pageopacity="0.0"
     inkscape:pageshadow="2"
     inkscape:zoom="3.959798"
     inkscape:cx="55.650403"
     inkscape:cy="-7.8009201"
     inkscape:document-units="mm"
     inkscape:current-layer="layer1"
     showgrid="false"
     units="px"
     fit-margin-top="0.1"
     fit-margin-left="0.1"
     fit-margin-right="0.1"
     fit-margin-bottom="0.1"
     inkscape:window-width="1920"
     inkscape:window-height="1017"
     inkscape:window-x="1912"
     inkscape:window-y="-8"
     inkscape:window-maximized="1" />
  <metadata
     id="metadata5">
    <rdf:RDF>
      <cc:Work
         rdf:about="">
        <dc:format>image/svg+xml</dc:format>
        <dc:type
           rdf:resource="http://purl.org/dc/dcmitype/StillImage" />
        <dc:title></dc:title>
      </cc:Work>
    </rdf:RDF>
  </metadata>
  <g
     inkscape:label="Layer 1"
     inkscape:groupmode="layer"
     id="layer1"
     transform="translate(15.84205,-316.92504)">
    <g
       transform="matrix(0.03185631,0,0,0.03185631,-15.837676,314.33925)"
       id="layer1-6"
       inkscape:label="Layer 1"
       style="fill:#999999">
      <path
         transform="matrix(0.26458333,0,0,0.26458333,0,79)"
         inkscape:connector-curvature="0"
         id="path1466"
         d="m 13.586357,822.44955 c -0.4102,-0.66373 -2.03088,-6.97593 -3.6015099,-14.02714 -12.1339217,-54.47419 -9.13565402,-118.47117 7.9708839,-170.13573 17.399383,-52.54901 49.337697,-97.8401 86.840419,-123.14667 22.98087,-15.50734 52.28651,-26.58307 74.59384,-28.19191 13.37761,-0.96481 7.9995,-3.49409 49.77357,23.40805 13.35714,8.60188 30.14247,18.96752 37.30074,23.03474 44.79389,25.45123 91.42477,37.7434 134.4547,35.44303 73.72843,-3.9415 125.97626,-24.26177 177.27584,-68.94627 22.4618,-19.56535 20.3339,-18.59198 36.21603,-16.5664 24.25457,3.09338 44.17534,9.90768 64.69342,22.12968 58.6107,34.91264 100.06095,103.99083 111.6465,186.06252 5.40018,38.25469 2.04942,90.91147 -8.06785,126.78572 l -1.51083,5.35714 H 397.75214 c -210.88098,0 -383.755582,-0.54304 -384.165783,-1.20676 z"
         style="opacity:1;fill:#999999;fill-opacity:1;fill-rule:evenodd;stroke:none;stroke-width:8.09898758;stroke-linecap:round;stroke-linejoin:miter;stroke-miterlimit:4;stroke-dasharray:none;stroke-opacity:1;paint-order:fill markers stroke" />
      <path
         inkscape:connector-curvature="0"
         id="path1473"
         d="m 96.855995,206.51764 c -26.060283,-3.21634 -48.191726,-24.64397 -52.973641,-51.289 -1.063826,-5.92767 -0.927108,-17.97705 0.266861,-23.51972 2.714194,-12.59985 8.375283,-22.94809 17.29323,-31.6113 5.590405,-5.430722 10.053072,-8.666083 16.149556,-11.708172 9.278728,-4.629997 16.794747,-6.394841 27.207489,-6.388617 7.6638,0.0046 11.32546,0.495617 18.07135,2.423414 25.71104,7.347533 44.55344,32.523995 44.54216,59.515465 -0.0127,30.33333 -21.24293,56.16817 -50.75827,61.76713 -5.60526,1.0633 -14.72638,1.43683 -19.798735,0.8108 z"
         style="opacity:1;fill:#999999;fill-opacity:1;fill-rule:evenodd;stroke:none;stroke-width:3.0304575;stroke-linecap:round;stroke-linejoin:miter;stroke-miterlimit:4;stroke-dasharray:none;stroke-opacity:1;paint-order:fill markers stroke" />
    </g>
  </g>
</svg>
